<svg width="270" height="270" viewBox="0 0 270 270" fill="none" xmlns="http://www.w3.org/2000/svg">
<path d="M57.6315 207.306C54.0486 204.272 50.0646 201.746 45.792 199.8C43.092 202.649 38.9205 207.603 37.314 209.318C39.879 207.617 63.3825 224.478 64.314 228.677C64.908 220.725 53.838 214.178 57.6315 207.306Z" fill="#E6E7E8"/>
<path d="M139.523 215.312C138.173 212.085 109.296 206.888 108.567 209.696C109.175 206.051 110.363 204.512 110.646 198.207C115.124 197.821 119.634 198.007 124.065 198.76C123.606 207.009 138.186 207.414 139.523 215.312Z" fill="#E6E7E8"/>
<path d="M247.712 165.645C247.895 167.266 247.677 168.907 247.077 170.424C245.093 169.074 231.89 160.799 231.89 160.799L237.83 159.543C242.568 162.378 246.2 164.565 247.712 165.645Z" fill="#E6E7E8"/>
<path d="M213.003 132.961L209.385 133.731L212.517 148.5C211.167 147.636 210.127 146.92 209.425 146.448C208.359 135.013 204.93 117.72 201.892 104.895C203.858 103.825 205.648 102.459 207.198 100.845C209.979 112.414 210.6 116.869 213.003 132.961Z" fill="#E6E7E8"/>
<path d="M237.749 180.806C205.74 162.77 201.893 160.434 198.599 156.762C195.305 153.09 194.292 147.393 189.149 124.173C188.431 132.107 186.763 139.925 184.181 147.461C183.687 148.402 183.259 149.376 182.898 150.377C185.841 165.375 188.568 176.85 191.228 188.379C188.271 191.579 178.457 194.454 172.584 192.834C163.04 155.763 162.5 152.429 162.918 147.434C163.269 143.181 165.105 138.429 176.999 112.509C176.715 111.861 176.27 110.687 176.027 110.025C182.777 111.942 195.116 108.77 201.92 104.855C204.957 117.68 208.373 134.973 209.453 146.408L212.544 148.46L215.879 164.201L231.93 160.785C238.842 165.159 245.106 169.115 247.104 170.411C245.7 174.326 241.65 179.901 237.749 180.806Z" fill="#E6E7E8"/>
<path d="M143.95 124.456C148.203 126.657 150.255 128.331 150.606 129.856C150.682 130.293 150.634 130.743 150.467 131.153C150.3 131.564 150.02 131.919 149.661 132.178C149.809 132.475 149.863 132.811 149.815 133.139C149.767 133.467 149.619 133.773 149.391 134.014C149.229 134.257 148.993 134.441 148.718 134.538C148.443 134.636 148.144 134.641 147.865 134.554C147.123 136.687 145.894 136.741 144.76 136.255C143.991 138.348 141.952 137.605 140.832 137.335C140.899 136.768 140.94 136.147 140.967 135.459C141.061 133.393 138.807 132.894 138.415 134.865C138.199 135.985 138.307 135.877 138.159 135.877C138.159 135.634 138.24 135.364 138.28 135.094C138.577 132.975 136.215 132.394 135.675 134.338L135.324 135.688C135.445 135.216 135.553 134.77 135.634 134.446C136.147 132.3 133.704 131.544 133.029 133.555C133.029 133.69 132.934 133.839 132.88 133.987C132.873 133.943 132.873 133.897 132.88 133.852C133.542 131.814 131.287 130.963 130.369 132.813C130.126 133.299 129.762 134.163 129.424 135.04C128.803 134.946 127.602 134.784 126.589 134.689C128.614 131.139 128.493 125.239 126.819 121.729C130.018 122.188 130.68 122.337 131.625 121.81C133.839 120.555 134.73 118.989 135.972 119.34L137.538 119.826C136.377 121.176 135.243 122.823 133.677 125.118C132.57 126.738 135.607 127.818 139.32 123.552C140.762 124.24 142.355 124.551 143.95 124.456Z" fill="#E6E7E8"/>
<path d="M235.818 105.988C235.754 105.988 235.691 105.97 235.637 105.936C235.582 105.902 235.538 105.854 235.509 105.797C235.48 105.74 235.467 105.677 235.471 105.613C235.476 105.549 235.498 105.487 235.535 105.435L262.764 66.5414L214.907 33.0344L192.065 65.6639C192.038 65.702 192.004 65.7345 191.965 65.7596C191.926 65.7846 191.882 65.8017 191.836 65.8099C191.791 65.818 191.744 65.8171 191.698 65.8071C191.653 65.7971 191.61 65.7783 191.572 65.7517C191.534 65.7251 191.501 65.6912 191.476 65.6521C191.451 65.6129 191.434 65.5692 191.426 65.5235C191.418 65.4777 191.419 65.4308 191.429 65.3854C191.439 65.34 191.457 65.297 191.484 65.2589L214.529 32.3999C214.583 32.3222 214.666 32.2689 214.759 32.2512C214.852 32.2336 214.949 32.253 215.028 32.3054L263.453 66.1499C263.491 66.1768 263.524 66.2113 263.55 66.2512C263.575 66.2912 263.592 66.3358 263.599 66.3824C263.607 66.4291 263.605 66.4768 263.594 66.5226C263.582 66.5685 263.562 66.6116 263.534 66.6494C234.117 108.742 236.088 105.988 235.818 105.988Z" fill="#3B6DEB"/>
<path d="M224.1 121.972L213.921 136.525C213.921 136.732 213.975 136.948 214.083 137.173L224.519 122.323C224.542 122.296 224.559 122.264 224.57 122.23C224.581 122.196 224.584 122.16 224.581 122.124C224.578 122.088 224.568 122.054 224.551 122.022C224.535 121.99 224.512 121.962 224.485 121.939C224.457 121.916 224.426 121.898 224.391 121.887C224.357 121.877 224.321 121.873 224.285 121.876C224.25 121.879 224.215 121.889 224.183 121.906C224.151 121.922 224.123 121.945 224.1 121.972Z" fill="#02897A"/>
<path d="M187.906 174.42C187.84 174.421 187.775 174.404 187.718 174.369C187.661 174.335 187.615 174.285 187.586 174.226C187.556 174.167 187.544 174.1 187.55 174.034C187.557 173.968 187.582 173.905 187.623 173.853L199.125 157.423C199.179 157.346 199.261 157.294 199.353 157.277C199.446 157.261 199.541 157.282 199.618 157.336C199.695 157.389 199.747 157.471 199.764 157.564C199.78 157.656 199.759 157.751 199.705 157.828C187.434 175.324 188.19 174.42 187.906 174.42Z" fill="#3B6DEB"/>
<path d="M143.519 237.803C143.343 237.803 146.219 239.855 79.6095 193.145C79.5326 193.091 79.4801 193.009 79.4636 192.916C79.4472 192.824 79.4681 192.729 79.5218 192.652C79.5755 192.575 79.6576 192.522 79.75 192.506C79.8424 192.489 79.9376 192.51 80.0145 192.564L143.465 236.966L174.15 193.05C174.177 193.012 174.21 192.979 174.25 192.954C174.289 192.929 174.332 192.912 174.378 192.904C174.424 192.896 174.471 192.897 174.516 192.907C174.562 192.917 174.605 192.936 174.643 192.962C174.681 192.989 174.713 193.023 174.738 193.062C174.763 193.101 174.781 193.145 174.789 193.19C174.797 193.236 174.796 193.283 174.786 193.329C174.776 193.374 174.757 193.417 174.731 193.455C141.602 240.881 143.802 237.803 143.519 237.803Z" fill="#3B6DEB"/>
<path d="M60.0616 179.375C59.8861 179.375 62.1406 181.089 6.5476 141.98C6.50873 141.953 6.47569 141.918 6.45046 141.878C6.42523 141.838 6.40833 141.794 6.40077 141.747C6.3932 141.7 6.39513 141.653 6.40645 141.607C6.41776 141.561 6.43822 141.518 6.4666 141.48C42.8356 89.4646 40.3786 92.9476 40.5946 92.8801C40.8106 92.8126 40.3381 92.5696 47.9656 97.9021C48.0037 97.9286 48.0362 97.9625 48.0613 98.0016C48.0863 98.0408 48.1034 98.0845 48.1115 98.1303C48.1197 98.176 48.1187 98.2229 48.1087 98.2683C48.0988 98.3137 48.0799 98.3567 48.0533 98.3948C48.0268 98.4329 47.9929 98.4654 47.9538 98.4905C47.9146 98.5155 47.8709 98.5326 47.8251 98.5407C47.7794 98.5489 47.7325 98.5479 47.6871 98.538C47.6417 98.528 47.5987 98.5091 47.5606 98.4826L40.8106 93.7171L7.2361 141.602L60.2641 178.727C60.3213 178.772 60.3633 178.834 60.3847 178.905C60.4061 178.975 60.4059 179.05 60.384 179.12C60.3621 179.19 60.3197 179.251 60.2622 179.297C60.2046 179.342 60.1347 179.369 60.0616 179.375Z" fill="#3B6DEB"/>
<path d="M128.804 155.412L124.47 152.375C124.393 152.321 124.341 152.239 124.324 152.146C124.308 152.054 124.329 151.959 124.382 151.882C124.436 151.805 124.518 151.752 124.61 151.736C124.703 151.719 124.798 151.74 124.875 151.794L128.925 154.629L141.075 137.214C141.129 137.137 141.211 137.085 141.303 137.068C141.396 137.052 141.491 137.073 141.568 137.126C141.645 137.18 141.697 137.262 141.714 137.354C141.73 137.447 141.709 137.542 141.656 137.619L129.263 155.318C129.211 155.387 129.136 155.435 129.051 155.453C128.966 155.47 128.878 155.456 128.804 155.412V155.412Z" fill="#3B6DEB"/>
<path d="M154.859 51.0435L153.09 41.0265C153.084 40.9805 153.068 40.9364 153.044 40.8968C153.019 40.8572 152.987 40.8231 152.949 40.7965C152.911 40.7699 152.868 40.7514 152.823 40.7422C152.777 40.733 152.73 40.7332 152.685 40.743L142.668 42.498C142.622 42.5059 142.578 42.5229 142.538 42.5479C142.499 42.5729 142.465 42.6055 142.438 42.6437C142.411 42.682 142.392 42.7251 142.381 42.7708C142.371 42.8164 142.37 42.8636 142.378 42.9097C142.386 42.9558 142.403 42.9999 142.428 43.0394C142.453 43.0789 142.485 43.1132 142.524 43.1401C142.562 43.1671 142.605 43.1862 142.651 43.1965C142.696 43.2068 142.743 43.2079 142.79 43.2L151.97 41.58L136.769 63.288L123.593 54.0675C123.517 54.0144 123.424 53.9932 123.333 54.0084C123.242 54.0235 123.161 54.0738 123.107 54.1485L108.837 74.5335C108.803 74.5701 108.778 74.6134 108.762 74.6606C108.747 74.7078 108.741 74.7578 108.747 74.8072C108.752 74.8566 108.767 74.9044 108.792 74.9473C108.817 74.9903 108.851 75.0274 108.892 75.0563C108.932 75.0852 108.978 75.1052 109.027 75.1149C109.076 75.1246 109.126 75.1239 109.174 75.1128C109.223 75.1016 109.268 75.0803 109.308 75.0503C109.348 75.0202 109.38 74.9821 109.404 74.9385L123.485 54.8505L136.647 64.071C136.726 64.1216 136.82 64.1413 136.912 64.1264C137.005 64.1114 137.088 64.0628 137.147 63.99L152.55 41.985L154.157 51.165C154.165 51.2111 154.182 51.2551 154.207 51.2947C154.232 51.3342 154.264 51.3684 154.302 51.3954C154.341 51.4223 154.384 51.4415 154.429 51.4517C154.475 51.462 154.522 51.4632 154.568 51.4552C154.614 51.4472 154.658 51.4303 154.698 51.4052C154.738 51.3802 154.772 51.3477 154.799 51.3095C154.826 51.2712 154.845 51.228 154.855 51.1824C154.865 51.1368 154.867 51.0896 154.859 51.0435V51.0435Z" fill="#3B6DEB"/>
<path d="M59.6296 64.557C59.5284 63.9743 59.3133 63.4172 58.9965 62.9177C58.6797 62.4182 58.2675 61.9862 57.7834 61.6463C57.2993 61.3064 56.7529 61.0654 56.1755 60.9371C55.5981 60.8088 55.001 60.7957 54.4186 60.8985L52.1911 61.29L50.8411 53.811L57.1996 52.65C57.2927 52.6339 57.3755 52.5815 57.43 52.5043C57.4844 52.4271 57.5059 52.3314 57.4898 52.2383C57.4737 52.1452 57.4213 52.0623 57.3441 52.0079C57.2668 51.9535 57.1712 51.9319 57.0781 51.948L50.7466 53.0685L50.2741 50.3685C50.27 50.32 50.2558 50.2728 50.2324 50.23C50.209 50.1872 50.177 50.1497 50.1384 50.1199C50.0997 50.0902 50.0553 50.0688 50.008 50.0572C49.9606 50.0456 49.9113 50.044 49.8633 50.0525C49.8153 50.0609 49.7696 50.0793 49.729 50.1064C49.6885 50.1336 49.6541 50.1689 49.628 50.21C49.6018 50.2512 49.5846 50.2974 49.5773 50.3456C49.57 50.3938 49.5728 50.443 49.5856 50.49L50.0581 53.19L47.8441 53.5815C47.2635 53.6826 46.7084 53.897 46.2107 54.2126C45.713 54.5281 45.2823 54.9386 44.9432 55.4206C44.6041 55.9026 44.3632 56.4467 44.2344 57.0218C44.1056 57.5969 44.0913 58.1917 44.1923 58.7723C44.2934 59.3529 44.5078 59.9079 44.8233 60.4057C45.1389 60.9034 45.5494 61.3341 46.0314 61.6732C46.5134 62.0123 47.0575 62.2531 47.6326 62.382C48.2076 62.5108 48.8025 62.5251 49.3831 62.424L51.6241 62.1L52.9741 69.579L46.6561 70.6995C46.6075 70.7037 46.5603 70.7178 46.5175 70.7412C46.4747 70.7646 46.4372 70.7966 46.4075 70.8352C46.3777 70.8739 46.3564 70.9183 46.3448 70.9657C46.3331 71.013 46.3315 71.0623 46.34 71.1103C46.3485 71.1583 46.3668 71.204 46.394 71.2446C46.4211 71.2851 46.4564 71.3195 46.4975 71.3456C46.5387 71.3718 46.5849 71.389 46.6331 71.3963C46.6813 71.4036 46.7305 71.4008 46.7776 71.388L53.0956 70.281L53.5816 72.981C53.6045 73.0656 53.6583 73.1385 53.7322 73.1855C53.8062 73.2324 53.895 73.25 53.9813 73.2348C54.0676 73.2195 54.1451 73.1726 54.1985 73.1032C54.2519 73.0337 54.2774 72.9468 54.2701 72.8595L53.7976 70.1595L56.0116 69.768C57.1777 69.5479 58.2106 68.8781 58.8875 67.9033C59.5643 66.9285 59.8308 65.7266 59.6296 64.557V64.557ZM49.2616 61.857C48.5256 61.9818 47.7692 61.8867 47.0871 61.5836C46.405 61.2805 45.8274 60.7829 45.4268 60.1531C45.0261 59.5233 44.8202 58.7893 44.8347 58.043C44.8493 57.2967 45.0837 56.5713 45.5086 55.9575C46.6156 54.3915 48.0736 54.378 50.1796 54L51.5296 61.4655L49.2616 61.857ZM55.8496 69.1335L53.6356 69.525L52.2856 62.046C54.3646 61.695 55.7821 61.1955 57.3481 62.289C57.9353 62.7275 58.3835 63.3261 58.6389 64.013C58.8943 64.6999 58.9459 65.446 58.7877 66.1615C58.6295 66.8771 58.2681 67.5318 57.7469 68.047C57.2257 68.5622 56.5669 68.9161 55.8496 69.066V69.1335Z" fill="#3B6DEB"/>
<path d="M149.472 170.249L144.153 171.194L143.208 165.875C143.202 165.843 143.189 165.812 143.171 165.785C143.154 165.758 143.13 165.735 143.103 165.717C143.077 165.698 143.046 165.686 143.014 165.679C142.983 165.673 142.95 165.673 142.918 165.679C142.886 165.685 142.856 165.698 142.828 165.715C142.801 165.733 142.778 165.756 142.76 165.783C142.742 165.81 142.729 165.841 142.722 165.873C142.716 165.904 142.716 165.937 142.722 165.969L143.654 171.275L138.335 172.22C138.277 172.239 138.228 172.278 138.197 172.33C138.166 172.382 138.154 172.444 138.163 172.504C138.173 172.564 138.204 172.618 138.25 172.658C138.296 172.697 138.355 172.719 138.416 172.719L143.735 171.774L144.68 177.093C144.699 177.151 144.738 177.199 144.79 177.231C144.842 177.262 144.904 177.274 144.964 177.264C145.024 177.254 145.078 177.224 145.118 177.178C145.157 177.131 145.179 177.073 145.179 177.012L144.234 171.693L149.553 170.748C149.611 170.729 149.659 170.689 149.691 170.637C149.722 170.585 149.734 170.524 149.724 170.464C149.714 170.404 149.684 170.35 149.638 170.31C149.591 170.271 149.533 170.249 149.472 170.249V170.249Z" fill="#3B6DEB"/>
<path d="M223.33 190.552L215.878 191.902L214.528 184.464C214.524 184.415 214.51 184.368 214.487 184.325C214.463 184.282 214.431 184.245 214.393 184.215C214.354 184.186 214.31 184.164 214.262 184.153C214.215 184.141 214.166 184.139 214.118 184.148C214.07 184.156 214.024 184.175 213.983 184.202C213.943 184.229 213.909 184.264 213.882 184.305C213.856 184.347 213.839 184.393 213.832 184.441C213.824 184.489 213.827 184.538 213.84 184.585L215.19 192.024L207.751 193.374C207.703 193.378 207.656 193.392 207.613 193.416C207.57 193.439 207.533 193.471 207.503 193.51C207.473 193.548 207.452 193.593 207.44 193.64C207.429 193.687 207.427 193.737 207.435 193.785C207.444 193.833 207.462 193.878 207.489 193.919C207.516 193.959 207.552 193.994 207.593 194.02C207.634 194.046 207.68 194.063 207.728 194.071C207.777 194.078 207.826 194.075 207.873 194.062L215.311 192.712L216.661 200.151C216.678 200.244 216.73 200.327 216.807 200.381C216.884 200.436 216.98 200.457 217.073 200.441C217.166 200.425 217.249 200.373 217.304 200.295C217.358 200.218 217.38 200.122 217.363 200.029L216.013 192.591L223.465 191.241C223.554 191.22 223.632 191.166 223.681 191.09C223.731 191.013 223.748 190.921 223.731 190.831C223.713 190.742 223.662 190.663 223.587 190.611C223.512 190.559 223.42 190.538 223.33 190.552Z" fill="#3B6DEB"/>
<path d="M85.1175 226.8C84.3329 226.787 83.5696 226.542 82.9237 226.096C82.2777 225.651 81.7777 225.024 81.4866 224.295C81.1955 223.567 81.1262 222.768 81.2874 222C81.4486 221.232 81.8332 220.529 82.3927 219.979C82.9523 219.428 83.6619 219.056 84.4326 218.907C85.2032 218.759 86.0005 218.842 86.7242 219.145C87.448 219.448 88.0661 219.959 88.5008 220.612C88.9354 221.266 89.1674 222.033 89.1675 222.818C89.1676 223.346 89.0624 223.87 88.858 224.357C88.6537 224.845 88.3543 225.287 87.9773 225.658C87.6003 226.029 87.1533 226.32 86.6623 226.517C86.1713 226.713 85.6462 226.809 85.1175 226.8V226.8ZM85.1175 219.551C84.4714 219.551 83.8397 219.742 83.3025 220.101C82.7652 220.46 82.3465 220.97 82.0992 221.567C81.8519 222.164 81.7872 222.821 81.9133 223.455C82.0393 224.089 82.3505 224.671 82.8074 225.128C83.2643 225.585 83.8464 225.896 84.4802 226.022C85.1139 226.148 85.7708 226.083 86.3677 225.836C86.9647 225.589 87.4749 225.17 87.8339 224.633C88.1929 224.095 88.3845 223.464 88.3845 222.818C88.3669 221.962 88.0154 221.146 87.405 220.546C86.7946 219.946 85.9736 219.608 85.1175 219.605V219.551Z" fill="#3B6DEB"/>
<path d="M232.632 102.816C233.631 102.816 234.265 105.111 233.023 105.071C231.781 105.03 231.579 102.816 232.632 102.816Z" fill="#FFA04B"/>
<path d="M159.408 122.769C159.705 123.647 157.829 125.105 157.626 124.119C157.424 123.134 159.111 121.892 159.408 122.769Z" fill="#FFA04B"/>
<path d="M121.338 133.852C121.865 132.867 124.038 132.975 123.552 133.961C123.066 134.946 120.717 135 121.338 133.852Z" fill="#FFA04B"/>
<path d="M68.31 170.896C63.99 156.276 64.5435 155.479 63.828 155.574L27.7155 160.096C27.6236 160.11 27.5403 160.158 27.4826 160.231C27.4249 160.303 27.3971 160.395 27.405 160.488L31.131 190.35C31.1444 190.442 31.1924 190.525 31.2652 190.583C31.3379 190.641 31.43 190.668 31.5225 190.66C52.8255 187.96 51.5025 188.19 51.6375 188.055C69.2955 170.167 68.391 171.207 68.31 170.896ZM51.219 187.434L31.7925 189.877L28.1475 160.758L33.0885 160.137L59.7645 178.807L51.219 187.434Z" fill="#3B6DEB"/>
<path d="M40.176 132.705C41.175 132.233 41.175 134.447 40.3515 134.703C39.528 134.96 39.5415 133.002 40.176 132.705Z" fill="#FFA04B"/>
<path d="M237.6 122.013L238.518 126.293L242.473 125.455L241.393 120.406C241.194 119.452 240.657 118.601 239.881 118.011C239.104 117.421 238.141 117.131 237.168 117.193C237.506 118.777 237.651 120.395 237.6 122.013V122.013Z" fill="#3B6DEB"/>
<path d="M221.535 129.883L225.49 129.046L224.869 126.076C224.869 126.076 224.019 120.541 223.897 119.974C223.342 120.049 222.808 120.238 222.33 120.53C221.851 120.821 221.438 121.209 221.117 121.668C220.796 122.128 220.574 122.649 220.465 123.198C220.355 123.748 220.361 124.314 220.482 124.861L221.535 129.883Z" fill="#3B6DEB"/>
<path d="M38.5695 157.599L42.6195 157.099L42.1065 152.914C42.1065 152.914 42.1065 148.243 42.1065 148.095C40.8696 148.27 39.7512 148.924 38.9932 149.917C38.2353 150.91 37.8987 152.161 38.0565 153.4L38.5695 157.599Z" fill="#3B6DEB"/>
<path d="M55.5256 155.479L59.5756 154.98L59.0626 150.808C58.9173 149.638 58.3394 148.564 57.4426 147.798C56.4246 148.073 55.3926 148.294 54.3511 148.459C54.9911 150.751 55.3848 153.104 55.5256 155.479V155.479Z" fill="#3B6DEB"/>
<path d="M40.176 132.705C41.175 132.233 41.175 134.447 40.3515 134.703C39.528 134.96 39.5415 133.002 40.176 132.705Z" fill="#FFA04B"/>
<path d="M121.338 133.852C121.865 132.867 124.038 132.975 123.552 133.961C123.066 134.946 120.717 135 121.338 133.852Z" fill="#FFA04B"/>
<path d="M157.626 124.051C157.829 125.104 159.719 123.646 159.408 122.701C159.098 121.756 157.383 122.85 157.626 124.051Z" fill="#FFA04B"/>
<path d="M232.632 102.816C233.631 102.816 234.252 105.111 233.023 105.071C231.795 105.03 231.579 102.816 232.632 102.816Z" fill="#FFA04B"/>
<path d="M254.583 170.1C252.465 169.224 250.291 168.489 248.076 167.899C248.185 167.138 248.185 166.366 248.076 165.604C248.062 165.514 248.013 165.432 247.941 165.375C246.308 164.214 241.691 161.473 238.032 159.259C237.992 159.236 237.948 159.22 237.902 159.213C237.856 159.206 237.809 159.208 237.764 159.22C237.719 159.231 237.676 159.251 237.639 159.279C237.602 159.306 237.57 159.341 237.546 159.381C237.522 159.421 237.506 159.465 237.499 159.511C237.493 159.557 237.495 159.604 237.506 159.649C237.517 159.694 237.537 159.737 237.565 159.774C237.593 159.811 237.628 159.843 237.668 159.867C240.881 161.797 245.768 164.713 247.401 165.861C247.532 167.229 247.371 168.61 246.929 169.911C244.931 168.628 232.079 160.461 232.079 160.461C232.04 160.436 231.996 160.419 231.95 160.411C231.905 160.403 231.858 160.404 231.813 160.414C231.768 160.424 231.725 160.443 231.687 160.47C231.65 160.496 231.617 160.53 231.593 160.569C231.568 160.608 231.551 160.651 231.543 160.697C231.535 160.743 231.536 160.789 231.546 160.834C231.556 160.879 231.575 160.922 231.601 160.96C231.628 160.998 231.662 161.03 231.701 161.055C231.701 161.055 244.769 169.317 246.659 170.505C244.931 175.095 240.692 179.644 237.789 180.36C205.713 162.283 202.055 160.042 198.828 156.451C195.602 152.86 194.414 146.407 189.459 124.051C189.442 123.977 189.401 123.911 189.342 123.862C189.284 123.814 189.211 123.785 189.135 123.781C186.435 123.619 185.733 122.607 185.477 123.255C185.444 123.341 185.446 123.436 185.481 123.522C185.516 123.607 185.582 123.675 185.666 123.714C186.646 124.108 187.678 124.358 188.73 124.456C187.982 132.212 186.338 139.854 183.83 147.231C183.311 148.193 182.86 149.19 182.48 150.214C182.183 151.078 190.58 187.353 190.755 188.23C188.055 191.065 178.605 194.089 172.787 192.51C163.458 156.249 162.783 152.442 163.188 147.42C163.553 143.1 165.659 137.889 177.255 112.63C177.35 112.414 177.255 112.522 176.526 110.497C178.674 110.909 180.869 111.018 183.047 110.821C184.397 116.653 184.545 117.666 187.097 117.571C187.143 117.568 187.188 117.556 187.229 117.535C187.27 117.514 187.307 117.485 187.337 117.45C187.367 117.415 187.39 117.374 187.404 117.33C187.419 117.286 187.424 117.24 187.421 117.193C187.419 117.148 187.408 117.103 187.389 117.062C187.369 117.021 187.342 116.984 187.307 116.954C187.273 116.923 187.234 116.9 187.19 116.886C187.147 116.871 187.101 116.866 187.056 116.869C185.234 116.964 185.18 116.775 183.762 110.808C190.016 110.193 196.088 108.359 201.636 105.408C204.336 117.139 207.941 134.743 209.061 146.461C209.061 146.664 208.967 146.61 212.301 148.783C212.38 148.835 212.476 148.854 212.568 148.835C212.661 148.816 212.742 148.761 212.794 148.682C212.846 148.603 212.864 148.507 212.845 148.415C212.826 148.322 212.771 148.241 212.693 148.189C211.437 147.379 210.438 146.704 209.736 146.232C208.602 134.406 205.025 116.734 202.271 105.043C203.992 104.075 205.577 102.881 206.982 101.493C208.089 106.177 209.169 111.145 209.871 115.33C212.882 133.299 212.342 133.339 212.976 133.339C213.027 133.34 213.078 133.33 213.124 133.309C213.171 133.288 213.212 133.257 213.245 133.218C213.279 133.18 213.303 133.134 213.318 133.085C213.332 133.036 213.335 132.985 213.327 132.934C210.465 114.034 209.966 109.701 204.39 88.2225C210.033 88.992 211.275 89.6805 212.936 90.9225C214.596 92.1645 215.123 94.473 219.281 112.63C219.402 113.751 220.631 114.075 221.832 113.98C221.171 115.128 219.983 116.68 219.983 117.639C220.046 118.959 220.476 120.235 221.225 121.324C221.273 121.405 221.351 121.463 221.442 121.486C221.534 121.509 221.63 121.494 221.711 121.446C221.791 121.398 221.849 121.319 221.872 121.228C221.895 121.137 221.88 121.041 221.832 120.96C221.145 119.983 220.748 118.832 220.685 117.639C220.685 116.599 222.804 114.291 222.912 113.103C222.955 112.188 222.832 111.273 222.548 110.403C225.994 109.044 229.645 108.277 233.348 108.135C234.036 110.835 235.724 113.022 236.79 117.72C237.136 119.581 237.195 121.484 236.966 123.363C236.809 123.751 236.506 124.063 236.122 124.229C235.738 124.396 235.304 124.405 234.914 124.254C235.02 123.091 235.02 121.921 234.914 120.757C234.914 120.664 234.877 120.575 234.811 120.509C234.745 120.443 234.656 120.406 234.563 120.406C234.469 120.406 234.38 120.443 234.314 120.509C234.249 120.575 234.212 120.664 234.212 120.757C234.306 121.849 234.306 122.947 234.212 124.038C234.104 125.01 233.01 125.712 231.728 124.983C231.822 123.86 231.822 122.731 231.728 121.608C231.728 121.515 231.691 121.426 231.625 121.36C231.559 121.294 231.47 121.257 231.377 121.257C231.283 121.257 231.194 121.294 231.128 121.36C231.063 121.426 231.026 121.515 231.026 121.608C231.198 122.735 231.198 123.883 231.026 125.01C230.942 125.264 230.796 125.494 230.601 125.678C230.406 125.861 230.169 125.993 229.91 126.062C229.651 126.13 229.379 126.133 229.119 126.069C228.859 126.006 228.618 125.878 228.42 125.698C228.529 124.573 228.488 123.438 228.299 122.323C228.282 122.23 228.23 122.148 228.153 122.093C228.076 122.039 227.98 122.017 227.887 122.033C227.794 122.049 227.711 122.102 227.656 122.179C227.602 122.256 227.58 122.352 227.597 122.445C227.758 123.408 227.813 124.386 227.759 125.361C227.759 125.719 227.616 126.062 227.363 126.316C227.11 126.569 226.767 126.711 226.409 126.711C226.05 126.711 225.707 126.569 225.454 126.316C225.201 126.062 225.059 125.719 225.059 125.361C224.826 122.891 224.374 120.447 223.709 118.057C223.676 117.97 223.611 117.898 223.526 117.859C223.441 117.82 223.344 117.816 223.256 117.848C223.169 117.88 223.097 117.946 223.058 118.031C223.019 118.116 223.015 118.213 223.047 118.3C223.704 120.633 224.156 123.018 224.397 125.428C224.425 125.869 224.592 126.288 224.875 126.626C225.159 126.964 225.542 127.203 225.971 127.307C226.399 127.411 226.85 127.375 227.256 127.205C227.663 127.034 228.005 126.738 228.231 126.36C228.496 126.553 228.799 126.688 229.121 126.754C229.442 126.82 229.774 126.816 230.094 126.743C230.414 126.67 230.714 126.53 230.975 126.331C231.236 126.132 231.451 125.88 231.606 125.59C231.865 125.757 232.155 125.868 232.459 125.918C232.762 125.968 233.073 125.955 233.371 125.881C233.67 125.806 233.95 125.671 234.194 125.484C234.438 125.297 234.642 125.062 234.792 124.794C235.362 125 235.989 124.974 236.54 124.721C237.09 124.469 237.52 124.01 237.735 123.444C237.999 121.445 237.944 119.418 237.573 117.436C237.082 115.285 236.358 113.194 235.413 111.199C235.901 111.034 236.315 110.703 236.584 110.264C236.853 109.825 236.959 109.306 236.885 108.796C232.389 85.9275 229.743 80.1495 224.559 75.357C215.811 67.257 205.268 66.663 189.891 64.746C188.15 64.53 183.762 61.641 180.522 58.698C179.442 50.0175 179.172 49.248 174.866 48.762C174.582 46.845 173.313 46.5615 168.683 46.2375C165.429 46.008 163.944 46.2375 163.283 47.0205C162.621 47.8035 162.729 48.654 162.999 50.085C163.391 52.2045 164.525 52.785 166.536 52.9065C168.332 63.072 168.845 64.5165 170.654 64.719C171.855 64.8405 172.733 64.5435 174.285 63.126C174.285 64.5975 174.15 67.176 172.611 68.121C167.765 70.9155 165.767 72.0765 164.079 74.466C160.88 79.002 161.055 81.9585 160.475 101.79C157.343 104.49 153.86 107.325 150.782 109.89C144.032 115.29 144.032 115.29 144.032 115.951C144.004 116.689 144.26 117.408 144.747 117.963C144.468 118.174 144.125 118.284 143.775 118.273C141.17 118.368 138.996 117.504 137.957 118.651L137.43 119.245L136.08 118.827C134.595 118.408 133.691 120.055 131.45 121.324C130.626 121.797 130.1 121.648 127.035 121.23C126.709 120.512 126.251 119.862 125.685 119.313C125.361 119.029 107.406 116.923 106.961 116.869C106.164 91.854 105.341 87.8715 102.533 85.347C100.589 83.592 97.389 82.782 92.691 82.944C91.7859 82.3853 91.0197 81.6282 90.45 80.73C91.0539 80.8152 91.6627 80.8603 92.2725 80.865C94.1355 80.865 94.662 80.379 95.094 79.434C95.769 77.949 95.9175 74.979 95.229 67.554C96.7385 66.8503 98.0201 65.7371 98.928 64.341C99.2839 63.8798 99.4569 63.3033 99.4137 62.7224C99.3705 62.1414 99.1142 61.5969 98.694 61.1934C98.2738 60.79 97.7193 60.556 97.137 60.5364C96.5548 60.5168 95.9859 60.7131 95.5395 61.0875C95.121 59.0625 92.4615 59.13 91.4895 60.507C91.2078 60.2394 90.8631 60.0473 90.4873 59.9485C90.1116 59.8496 89.7169 59.8472 89.34 59.9414C88.9631 60.0356 88.616 60.2235 88.331 60.4875C88.046 60.7516 87.8322 61.0833 87.7095 61.452C87.4166 61.1896 87.0572 61.0128 86.6705 60.9408C86.2839 60.8688 85.8849 60.9044 85.5172 61.0437C85.1494 61.183 84.827 61.4206 84.5851 61.7307C84.3432 62.0408 84.1911 62.4114 84.1455 62.802C83.8351 62.6036 83.4744 62.4982 83.106 62.4982C82.7376 62.4982 82.3769 62.6036 82.0665 62.802C81.162 63.477 79.6635 66.177 85.0365 76.545C75.492 84.645 70.1865 86.454 66.2715 88.614C54.4185 92.799 44.253 99.063 40.2975 104.908C36.855 110.011 36.8955 118.962 38.34 138.388C38.205 139.468 40.041 139.603 41.1345 139.603C41.0596 142.46 41.1588 145.318 41.4315 148.162C41.437 148.215 41.454 148.265 41.4814 148.31C41.5088 148.354 41.5459 148.392 41.59 148.421C41.634 148.449 41.6838 148.468 41.7358 148.474C41.7879 148.481 41.8407 148.476 41.8905 148.459C41.8007 149.903 41.8007 151.35 41.8905 152.793C41.9471 153.165 42.1159 153.511 42.3743 153.785C42.6328 154.059 42.9686 154.247 43.3369 154.325C43.7052 154.402 44.0885 154.366 44.4355 154.22C44.7825 154.074 45.0768 153.826 45.279 153.508C45.4512 153.809 45.7012 154.059 46.0028 154.23C46.3045 154.401 46.6466 154.487 46.9933 154.48C47.34 154.473 47.6784 154.373 47.973 154.19C48.2676 154.007 48.5075 153.749 48.6675 153.441C48.8746 153.721 49.1524 153.94 49.4725 154.077C49.7925 154.213 50.1432 154.262 50.4884 154.218C50.8336 154.174 51.1608 154.039 51.4363 153.826C51.7119 153.614 51.9258 153.332 52.056 153.009C52.3451 153.337 52.7368 153.557 53.1671 153.633C53.5975 153.709 54.041 153.637 54.425 153.429C54.8091 153.22 55.1111 152.888 55.2816 152.485C55.4521 152.083 55.481 151.634 55.3635 151.213C55.3635 151.213 54.9855 149.323 54.837 148.675C55.8955 148.617 56.9321 148.351 57.888 147.892C58.6575 147.258 58.1175 142.897 57.4965 141.939C56.3979 140.674 55.2307 139.471 54 138.334C54.945 138.145 56.349 137.727 56.3085 136.755C56.0655 131.719 55.701 120.325 55.6875 114.345L59.3595 113.184C58.509 122.553 58.239 131.692 60.102 140.791C62.1 151.2 65.718 164.7 67.5675 170.896C64.449 174.069 41.3505 197.343 39.852 199.084C38.6505 200.434 40.041 202.608 41.5125 203.931C40.1625 205.456 37.962 207.981 36.99 209.074C34.1145 212.152 48.978 222.061 52.8795 224.491C55.9575 226.422 65.394 232.105 64.6785 228.541C65.0565 222.871 59.5485 217.957 57.7395 213.111C58.5945 213.484 59.5084 213.703 60.4395 213.759C61.56 213.759 61.668 213.3 62.1945 212.733C88.2495 184.383 89.883 182.088 90.5445 177.147C91.098 173.097 89.9775 164.295 88.911 155.331C93.4065 158.031 98.8065 161.244 105.219 165.361C105.651 169.6 106.569 191.821 106.299 200.016C106.016 201.649 108.176 202.419 109.809 202.716C109.418 205.024 108.284 208.359 108.176 209.709C107.825 214.015 128.939 216.715 135.446 216.715C136.958 216.715 140.306 216.715 139.86 215.23C138.834 209.074 130.154 207.373 126.266 203.364C127.616 203.283 129.56 202.878 129.506 201.555C127.94 160.272 127.454 155.506 124.2 150.646C121.136 146.056 118.611 144.031 105.719 136.107C110.39 136.39 116.694 136.444 125.267 136.444C125.37 136.452 125.472 136.418 125.55 136.35C125.988 135.918 126.369 135.433 126.684 134.905L128.885 135.175C128.793 135.547 128.822 135.938 128.967 136.292C129.112 136.646 129.365 136.945 129.691 137.146C130.016 137.347 130.397 137.44 130.779 137.411C131.16 137.382 131.523 137.233 131.814 136.984C131.895 137.277 132.047 137.545 132.257 137.765C132.467 137.984 132.729 138.148 133.018 138.242C133.307 138.336 133.614 138.356 133.913 138.302C134.212 138.247 134.493 138.119 134.73 137.929C134.851 138.215 135.043 138.465 135.286 138.656C135.53 138.848 135.819 138.974 136.125 139.024C136.431 139.074 136.744 139.045 137.036 138.941C137.328 138.837 137.589 138.661 137.795 138.429C137.969 138.735 138.229 138.983 138.544 139.141C138.859 139.299 139.214 139.361 139.563 139.317C139.913 139.274 140.242 139.128 140.508 138.898C140.775 138.668 140.968 138.364 141.062 138.024C141.062 137.902 141.062 137.794 141.062 137.673C142.709 138.091 144.153 138.132 144.882 136.593C146.421 137.106 147.434 136.336 148.041 134.838C148.345 134.885 148.656 134.841 148.935 134.711C149.214 134.582 149.448 134.372 149.607 134.109C149.84 133.844 150.002 133.524 150.075 133.178C150.148 132.833 150.131 132.475 150.026 132.138C150.353 131.862 150.607 131.509 150.765 131.111C150.923 130.713 150.979 130.282 150.93 129.856C151.47 129.33 152.28 128.587 153.117 127.845C154.049 128.601 155.642 129.384 156.398 128.52C161.798 124.389 172.517 115.168 176.27 111.834L176.526 112.468C164.943 137.713 162.837 142.938 162.473 147.366C162.054 152.496 162.729 156.33 172.152 192.874C172.167 192.934 172.198 192.989 172.24 193.034C172.283 193.079 172.336 193.112 172.395 193.131C173.276 193.378 174.181 193.532 175.095 193.59C171.423 198.408 168.535 203.775 166.536 209.493C165.821 211.815 186.786 204.241 193.536 197.343C193.584 197.297 193.617 197.238 193.632 197.173C193.646 197.108 193.641 197.04 193.617 196.978C192.694 194.416 191.528 191.948 190.134 189.607C190.58 189.296 190.988 188.934 191.349 188.527C191.388 188.487 191.416 188.437 191.431 188.383C191.445 188.329 191.445 188.271 191.43 188.217C188.379 174.865 185.895 164.376 183.128 150.322C184.086 147.622 186.327 144.126 191.079 134.959C194.333 149.472 195.575 153.967 198.221 156.91C201.528 160.582 205.2 162.837 237.492 181.021C237.803 181.21 239.031 180.63 239.355 180.454C240.057 187.947 243.324 202.054 244.755 200.461C249.089 195.291 254.489 176.985 254.772 170.329C254.759 170.28 254.736 170.233 254.703 170.194C254.67 170.154 254.629 170.122 254.583 170.1V170.1ZM235.953 108C234.522 107.284 231.593 107.379 227.448 108.283C225.315 108.756 221.171 109.836 219.753 111.483C219.254 109.269 218.795 107.311 218.403 105.556C220.293 101.938 232.065 99.684 234.603 101.506C235.049 103.437 235.494 105.583 235.953 107.905V108ZM186.003 63.9495C184.607 67.2845 182.793 70.4283 180.603 73.305C179.161 71.6964 177.919 69.9195 176.904 68.013C179.777 66.7324 182.48 65.0999 184.95 63.153L186.003 63.9495ZM170.694 64.2465C169.344 64.098 168.858 62.424 167.225 53.136C168.399 53.136 169.925 52.92 171.734 52.704C173.354 54.729 174.002 55.2825 174.542 55.107C174.812 55.0125 174.96 54.7155 174.96 54.243C174.96 52.245 176.756 52.542 176.796 55.7415C176.8 55.8095 176.824 55.875 176.864 55.9305C178.963 58.6088 181.473 60.9372 184.302 62.829C181.896 64.6831 179.271 66.2337 176.486 67.446C175.824 67.0655 175.238 66.5667 174.758 65.9745C174.758 65.799 174.758 65.6235 174.852 65.448C175.863 63.952 176.573 62.2739 176.945 60.507C176.958 60.4333 176.947 60.3573 176.915 60.2901C176.882 60.2228 176.828 60.1678 176.762 60.1331C176.695 60.0985 176.62 60.0859 176.546 60.0973C176.472 60.1087 176.403 60.1434 176.351 60.1965C172.908 63.8145 172.044 64.3005 170.667 64.152L170.694 64.2465ZM174.542 66.798C174.978 67.2621 175.478 67.662 176.027 67.986C175.433 69.336 174.771 70.875 174.312 72.3195C174.015 70.4521 174.083 68.5446 174.515 66.7035L174.542 66.798ZM89.694 73.2915C89.7466 73.2266 89.7753 73.1455 89.7753 73.062C89.7753 72.9784 89.7466 72.8974 89.694 72.8325C87.9795 70.1325 89.586 68.7825 90.4365 70.5375C91.098 71.8875 92.6775 71.8875 92.5965 68.5395C93.1869 68.3804 93.7645 68.1773 94.3245 67.932C95.067 76.032 94.77 78.543 93.987 79.6365C93.069 80.5275 90.1665 77.679 89.2755 76.7745C89.2258 76.7206 89.1604 76.6836 89.0886 76.6688C89.0167 76.6539 88.942 76.662 88.875 76.6918C88.808 76.7215 88.752 76.7716 88.7148 76.8349C88.6777 76.8981 88.6613 76.9714 88.668 77.0445C88.8165 79.65 89.3295 81.594 91.368 83.0655C85.2257 83.6279 79.1505 84.7715 73.224 86.481C65.772 88.452 74.3715 87.561 89.694 73.2915ZM42.444 152.779C42.336 151.74 42.444 150.619 42.444 148.54C42.444 146.745 44.469 146.583 44.5905 148.324C44.6985 149.809 44.7255 150.876 44.766 152.374C44.8197 152.679 44.7503 152.992 44.5731 153.245C44.3959 153.498 44.1254 153.671 43.821 153.724C43.5167 153.778 43.2035 153.709 42.9503 153.532C42.6971 153.354 42.5247 153.084 42.471 152.779H42.444ZM45.6705 152.914C45.4815 151.848 45.5085 150.714 45.3735 148.527C45.2655 146.65 47.3715 146.407 47.601 148.203C47.8035 149.782 47.898 150.903 48.033 152.374C48.051 152.662 47.9665 152.946 47.7946 153.176C47.6226 153.407 47.3744 153.569 47.0941 153.634C46.8138 153.699 46.5196 153.662 46.2638 153.53C46.0081 153.399 45.8074 153.18 45.6975 152.914H45.6705ZM48.951 152.698C48.708 151.632 48.6675 150.376 48.438 148.257C48.276 146.799 49.4775 146.272 50.2065 146.907C49.113 148 49.5315 149.107 50.5845 149.107H50.9085C51.057 150.012 51.138 150.66 51.3405 152.077C51.3621 152.367 51.2817 152.655 51.1131 152.891C50.9445 153.128 50.6985 153.297 50.4177 153.371C50.137 153.445 49.8392 153.418 49.5762 153.295C49.3132 153.172 49.1015 152.961 48.978 152.698H48.951ZM52.2585 152.212C51.9874 151.165 51.7845 150.1 51.651 149.026C52.326 149.026 53.163 148.932 54 148.824C54.1485 149.512 54.54 151.416 54.54 151.416C54.5855 151.697 54.5308 151.985 54.3856 152.23C54.2403 152.475 54.0137 152.661 53.7453 152.756C53.4769 152.85 53.1838 152.848 52.917 152.749C52.6502 152.649 52.4267 152.46 52.2855 152.212H52.2585ZM54.3105 139.833C55.1928 140.625 56.0142 141.482 56.7675 142.398C57.3638 144.001 57.5449 145.728 57.294 147.42C56.6325 147.987 51.7995 148.365 50.544 148.365C50.328 148.365 50.22 148.365 50.2065 148.176C50.2065 147.73 50.9895 146.529 53.8515 145.813C53.9446 145.799 54.0282 145.748 54.0839 145.672C54.1396 145.597 54.1628 145.502 54.1485 145.408C54.1342 145.315 54.0835 145.232 54.0075 145.176C53.9316 145.12 53.8366 145.097 53.7435 145.111C50.085 145.327 48.1545 144.193 47.6415 141.534C47.6374 141.485 47.6232 141.438 47.5999 141.395C47.5765 141.353 47.5445 141.315 47.5058 141.285C47.4672 141.256 47.4228 141.234 47.3754 141.223C47.3281 141.211 47.2788 141.209 47.2308 141.218C47.1828 141.226 47.137 141.245 47.0965 141.272C47.056 141.299 47.0216 141.334 46.9954 141.375C46.9693 141.417 46.952 141.463 46.9447 141.511C46.9374 141.559 46.9402 141.608 46.953 141.655C47.1212 142.826 47.7129 143.895 48.616 144.659C49.5191 145.422 50.671 145.829 51.8535 145.8C51.4734 145.97 51.1116 146.178 50.7735 146.421C50.5671 146.221 50.3144 146.075 50.038 145.997C49.7616 145.918 49.4701 145.909 49.1894 145.971C48.9087 146.032 48.6476 146.162 48.4294 146.349C48.2111 146.536 48.0425 146.774 47.9385 147.042C47.7689 146.797 47.5387 146.599 47.2703 146.469C47.0019 146.339 46.7044 146.281 46.4068 146.3C46.1092 146.319 45.8215 146.415 45.5719 146.578C45.3222 146.741 45.119 146.966 44.982 147.231C44.8139 146.954 44.5702 146.731 44.2798 146.588C43.9893 146.445 43.6641 146.388 43.3423 146.424C43.0205 146.459 42.7155 146.586 42.4631 146.788C42.2107 146.991 42.0214 147.262 41.9175 147.568C41.6519 144.11 41.6023 140.638 41.769 137.173C45.2164 136.357 48.7588 136.011 52.299 136.147C52.3243 136.879 52.5222 137.594 52.8765 138.235C53.2307 138.875 53.7313 139.423 54.3375 139.833H54.3105ZM38.8125 137.592C38.664 135.513 38.529 133.542 38.4075 131.706C40.689 128.803 52.9065 127.656 55.188 129.613C55.269 132.07 55.35 134.311 55.431 136.039C52.65 134.676 41.607 135.634 38.8395 137.592H38.8125ZM63.909 227.11C60.129 221.926 42.7545 209.56 38.1645 208.804C40.1625 206.563 43.443 202.675 45.846 200.137C49.9102 202.063 53.7119 204.499 57.159 207.387C53.838 214.042 63.1665 220.117 63.936 227.11H63.909ZM107.109 198.922C107.312 189.661 106.38 168.858 105.975 165.172C105.969 165.118 105.951 165.066 105.923 165.02C105.896 164.973 105.858 164.933 105.813 164.902C81.27 149.175 71.55 146.043 70.065 139.225C70.0453 139.134 69.9902 139.054 69.9117 139.004C69.8332 138.953 69.7378 138.936 69.6465 138.955C69.5552 138.975 69.4755 139.03 69.4248 139.109C69.3742 139.187 69.3568 139.283 69.3765 139.374C70.2 143.1 73.2105 145.732 79.2585 149.526C83.3248 157.914 86.9302 166.517 90.0585 175.297C89.8425 181.507 88.506 183.168 62.0055 211.99C61.209 209.142 55.404 204.97 52.947 203.31C50.247 201.474 44.847 198.139 41.4855 198.409C44.1855 195.601 65.124 174.447 68.256 171.247C68.3 171.202 68.3317 171.145 68.3482 171.084C68.3647 171.023 68.3655 170.958 68.3505 170.896C66.4875 164.7 62.802 151.092 60.75 140.71C60.1137 137.517 59.7077 134.282 59.535 131.031C64.044 127.899 72.927 125.928 84.8475 125.401C85.1445 132.529 87.156 133.326 92.0565 136.201C109.688 146.623 113.873 149.094 117.275 154.143C119.745 157.815 119.394 163.417 120.434 197.856C117.45 197.626 109.445 197.1 107.069 198.922H107.109ZM138.902 214.191C134.217 211.248 113.252 207.441 109.121 208.858C109.755 205.726 110.687 204.457 111.024 198.504C115.27 198.174 119.541 198.364 123.741 199.071C123.687 206.887 136.35 207.765 138.861 214.191H138.902ZM123.633 151.078C126.752 155.736 127.265 160.407 128.777 200.259C127.116 198.747 123.377 198.193 121.082 197.964C120.029 163.404 120.407 157.653 117.788 153.765C114.075 148.27 109.31 145.665 89.721 134.055C86.67 132.246 85.671 130.275 85.482 125.374L88.965 125.28C90.315 130.126 92.0295 132.03 95.0805 133.933C96.876 135.067 99.684 135.688 104.234 136.053C118.017 144.45 120.555 146.461 123.633 151.078ZM116.384 135.742C104.234 135.634 98.3475 135.162 95.4585 133.339C89.883 129.816 88.8975 126.171 86.4 103.072C86.3855 102.987 86.3432 102.909 86.2797 102.851C86.2162 102.792 86.1351 102.756 86.049 102.748C85.9613 102.751 85.8775 102.785 85.8131 102.845C85.7486 102.904 85.7077 102.985 85.698 103.072C85.1985 109.242 84.969 115.344 84.7665 121.041C73.008 121.351 63.9225 123.16 59.3325 126.144C59.5089 116.513 60.3433 106.906 61.83 97.389C61.8426 97.2959 61.8176 97.2016 61.7606 97.1269C61.7037 97.0522 61.6194 97.0033 61.5263 96.9907C61.4332 96.9782 61.3389 97.0031 61.2642 97.0601C61.1896 97.1171 61.1406 97.2014 61.128 97.2945C60.588 101.344 60.102 105.138 59.778 108.661C56.851 110.989 53.8 113.157 50.6385 115.155C50.567 115.2 50.5142 115.269 50.4897 115.35C50.4651 115.431 50.4706 115.518 50.5051 115.595C50.5396 115.672 50.6007 115.734 50.6773 115.77C50.7539 115.806 50.8408 115.813 50.922 115.789C51.975 115.506 53.433 115.074 54.972 114.628C54.972 118.287 55.1205 123.849 55.2825 128.763C52.1235 127.143 41.634 128.115 38.475 130.774C37.611 116.707 37.9755 109.593 40.8375 105.367C45.3735 98.55 58.8195 91.0305 73.4265 87.156C89.37 82.944 98.1585 82.566 101.912 85.941C104.531 88.29 105.3 92.205 106.097 116.856C105.665 116.856 105.3 116.748 105.017 116.734C104.97 116.729 104.924 116.733 104.879 116.746C104.834 116.758 104.793 116.78 104.756 116.809C104.72 116.837 104.69 116.873 104.667 116.914C104.645 116.954 104.63 116.999 104.625 117.045C104.62 117.091 104.624 117.138 104.636 117.182C104.649 117.227 104.67 117.269 104.699 117.305C104.728 117.341 104.764 117.372 104.804 117.394C104.845 117.417 104.889 117.431 104.936 117.436C106.286 117.585 112.32 118.3 117.518 118.948C120.447 121.824 120.218 132.448 116.384 135.742ZM125.145 135.742H117.45C120.798 132.03 121.19 122.742 118.611 119.056C121.554 119.434 124.119 119.772 125.199 119.961C128.25 122.85 128.696 132.3 125.145 135.769V135.742ZM131.544 136.161C131.395 136.385 131.168 136.546 130.907 136.613C130.647 136.68 130.371 136.649 130.132 136.526C129.893 136.402 129.708 136.194 129.612 135.943C129.516 135.691 129.517 135.413 129.614 135.162C129.965 134.257 130.343 133.353 130.599 132.84C131.315 131.368 132.975 131.976 132.462 133.609C132.3 134.338 131.774 135.648 131.544 136.188V136.161ZM135.216 134.23C135 135.148 134.771 136.093 134.501 136.93C134.096 138.28 132.071 137.578 132.503 135.999C132.665 135.418 133.016 134.311 133.286 133.515C133.812 131.976 135.621 132.57 135.216 134.257V134.23ZM137.916 134.932C137.797 135.841 137.631 136.742 137.417 137.632C137.336 137.908 137.149 138.141 136.897 138.279C136.645 138.417 136.349 138.449 136.073 138.368C135.798 138.288 135.565 138.101 135.427 137.849C135.289 137.597 135.257 137.301 135.338 137.025C135.513 136.255 135.77 135.216 135.999 134.325C136.445 132.759 138.159 133.285 137.93 135L137.916 134.932ZM140.616 135.351C140.591 136.207 140.506 137.059 140.36 137.902C140.117 139.077 138.227 138.699 138.321 137.686C138.321 137.227 138.605 135.621 138.753 134.838C139.05 133.299 140.67 133.758 140.616 135.378V135.351ZM149.702 131.53C148.572 130.387 147.234 129.47 145.76 128.83C145.678 128.795 145.586 128.791 145.502 128.821C145.418 128.85 145.348 128.91 145.307 128.989C145.266 129.068 145.256 129.16 145.28 129.246C145.304 129.332 145.359 129.405 145.436 129.451C146.205 129.856 149.189 131.314 149.486 132.462C149.522 132.673 149.508 132.889 149.445 133.093C149.381 133.297 149.27 133.484 149.121 133.636C148.649 134.284 148.001 134.568 144.356 132.03C144.279 131.976 144.183 131.955 144.091 131.972C143.999 131.988 143.916 132.041 143.863 132.118C143.809 132.195 143.788 132.29 143.805 132.382C143.821 132.475 143.874 132.557 143.951 132.61C145.025 133.42 146.195 134.096 147.434 134.622C147.35 134.922 147.2 135.199 146.994 135.433C146.788 135.667 146.533 135.851 146.246 135.972C145.112 136.323 143.546 134.959 142.749 134.406C142.67 134.354 142.574 134.336 142.482 134.355C142.389 134.374 142.308 134.428 142.256 134.507C142.204 134.586 142.186 134.682 142.205 134.775C142.224 134.867 142.279 134.948 142.358 135C142.984 135.486 143.638 135.937 144.315 136.35C143.735 137.538 142.574 137.349 141.251 137.011C141.251 136.471 141.332 135.931 141.345 135.391C141.426 133.326 139.469 132.583 138.51 133.758C138.425 133.505 138.277 133.278 138.08 133.099C137.882 132.92 137.643 132.794 137.383 132.733C137.124 132.672 136.853 132.678 136.596 132.751C136.34 132.825 136.106 132.962 135.918 133.15C135.844 132.878 135.699 132.629 135.499 132.429C135.299 132.229 135.05 132.085 134.777 132.012C134.504 131.938 134.216 131.937 133.943 132.009C133.669 132.081 133.42 132.223 133.218 132.421C132.759 131.071 130.869 130.815 130.019 132.556C129.789 133.015 129.465 133.758 129.168 134.541L127.103 134.284C128.72 130.412 128.807 126.069 127.346 122.134C128.311 122.296 129.284 122.404 130.262 122.458C130.787 122.481 131.308 122.35 131.76 122.08C133.866 120.892 134.852 119.38 135.81 119.65L136.89 119.974C135.797 121.324 134.717 122.863 133.326 124.888C131.936 126.913 135.297 128.506 139.361 123.943C140.774 124.589 142.317 124.898 143.87 124.848C148.028 127.008 150.147 128.722 150.323 130.113C150.331 130.385 150.28 130.655 150.173 130.904C150.066 131.154 149.905 131.377 149.702 131.557V131.53ZM150.755 129.127C150.12 127.777 148.311 126.427 145.098 124.618C145.596 124.529 146.081 124.38 146.543 124.173C146.614 124.128 146.667 124.059 146.691 123.978C146.716 123.897 146.71 123.81 146.676 123.733C146.641 123.656 146.58 123.593 146.504 123.558C146.427 123.522 146.34 123.515 146.259 123.538C145.147 123.944 143.964 124.113 142.783 124.037C141.603 123.96 140.451 123.639 139.401 123.093C139.329 123.057 139.247 123.046 139.168 123.064C139.09 123.081 139.019 123.125 138.969 123.187C135.81 126.859 133.016 126.454 133.88 125.185C135.252 123.08 136.763 121.069 138.402 119.164C138.834 118.678 139.847 118.773 141.102 118.894C145.044 119.272 144.45 119.07 147.461 116.532C150.509 118.925 153.101 121.847 155.115 125.158C154.022 126.171 151.956 128.007 150.755 129.154V129.127ZM161.339 123.727C159.651 125.077 158.058 126.427 156.735 127.453C156.465 124.294 149.135 115.654 145.787 114.952C147.015 113.913 148.743 112.495 150.714 110.902C155.25 111.415 161.622 119.785 161.339 123.714V123.727ZM174.947 106.177C172.247 98.8335 168.507 87.9795 168.345 86.6295C168.075 83.8009 168.075 80.953 168.345 78.1245C168.329 78.0415 168.284 77.9667 168.219 77.913C168.154 77.8592 168.072 77.8298 167.987 77.8298C167.903 77.8298 167.821 77.8592 167.756 77.913C167.69 77.9667 167.646 78.0415 167.63 78.1245C167.353 81.0023 167.353 83.9001 167.63 86.778C167.751 87.777 169.641 93.4335 171.68 99.2655C172.361 104.266 172.628 109.314 172.476 114.358C169.52 116.923 165.591 120.271 162.027 123.214C161.73 118.948 156.033 111.523 151.416 110.376C154.481 107.892 157.91 105.111 160.988 102.438C161.025 102.407 161.056 102.367 161.077 102.323C161.098 102.279 161.109 102.23 161.109 102.181C161.663 82.296 161.541 79.4205 164.592 75.087C167.063 71.577 172.274 69.687 173.475 68.526C173.362 70.3969 173.484 72.2746 173.84 74.115C173.861 74.1916 173.907 74.259 173.97 74.3071C174.034 74.3552 174.111 74.3812 174.191 74.3812C174.27 74.3812 174.347 74.3552 174.411 74.3071C174.474 74.259 174.52 74.1916 174.542 74.115C174.656 73.5149 174.814 72.9239 175.014 72.3465C175.205 73.0012 175.463 73.6346 175.784 74.2365C175.473 77.247 173.88 97.6725 173.88 99.1575C174.74 101.057 175.838 102.84 177.147 104.463C177.18 104.498 177.22 104.526 177.264 104.545C177.308 104.564 177.355 104.574 177.404 104.574C177.452 104.574 177.499 104.564 177.543 104.545C177.587 104.526 177.627 104.498 177.66 104.463C178.268 103.801 181.508 99.8325 181.44 99.252C180.995 95.931 177.984 76.653 177.39 74.25C177.843 73.5278 178.245 72.7744 178.592 71.9955C179.125 72.7382 179.721 73.4338 180.374 74.0745C180.406 74.1118 180.447 74.1417 180.492 74.1622C180.538 74.1827 180.587 74.1933 180.637 74.1933C180.687 74.1933 180.736 74.1827 180.781 74.1622C180.827 74.1417 180.867 74.1118 180.9 74.0745C183.19 71.0876 185.091 67.8214 186.557 64.3545C189.122 65.853 189.54 65.7045 192.497 66.042C207.279 67.824 216.203 68.8905 224.033 76.14C228.38 80.19 230.918 84.942 234.374 100.669C230.85 99.2385 220.874 101.277 218.174 104.638C215.474 93.15 214.947 91.584 213.381 90.4365C210.924 88.641 209.331 87.939 195.102 86.589C195.021 86.5827 194.941 86.6045 194.874 86.6507C194.808 86.6969 194.759 86.7646 194.737 86.8425C194.715 86.9203 194.72 87.0035 194.752 87.0778C194.784 87.1522 194.841 87.2132 194.913 87.2505C198.427 89.0702 201.802 91.1458 205.011 93.4605C205.295 94.5675 205.592 95.769 205.902 97.011C199.598 103.828 182.034 108.351 174.947 106.164V106.177Z" fill="#2EA3F2"/>
<path d="M226.368 121.338C226.286 121.332 226.208 121.298 226.148 121.242C226.087 121.186 226.047 121.111 226.035 121.03C226.022 120.948 226.038 120.865 226.079 120.794C226.12 120.722 226.183 120.667 226.26 120.636C227.947 120.109 233.496 118.705 235.224 118.408C235.271 118.396 235.32 118.393 235.368 118.4C235.417 118.407 235.463 118.425 235.504 118.451C235.545 118.477 235.58 118.511 235.608 118.552C235.635 118.592 235.653 118.638 235.662 118.686C235.67 118.734 235.668 118.784 235.657 118.831C235.645 118.878 235.624 118.923 235.594 118.961C235.564 119 235.527 119.032 235.484 119.055C235.441 119.079 235.394 119.093 235.345 119.097C232.294 119.637 226.503 121.338 226.368 121.338Z" fill="#FFA04B"/>
<path d="M209.79 133.434L217.012 150.363L222.885 149.107L222.223 145.989L225.355 145.327L226.017 148.446L246.415 144.112L245.754 140.994L248.899 140.319L249.561 143.437L255.42 142.195L255.15 123.646C206.131 134.055 209.709 133.245 209.79 133.434Z" fill="#3B6DEB"/>
<path d="M262.454 154.305L256.122 124.605L256.405 142.628C256.408 142.742 256.37 142.853 256.298 142.942C256.226 143.031 256.126 143.091 256.014 143.114L249.75 144.45L250.425 147.663L247.293 148.338L246.604 145.112L226.206 149.445L226.895 152.672L223.749 153.347L223.074 150.12L216.81 151.47C216.701 151.494 216.587 151.479 216.488 151.427C216.389 151.375 216.312 151.29 216.27 151.187L209.25 134.528L215.582 164.228C215.591 164.273 215.61 164.316 215.636 164.354C215.662 164.392 215.696 164.425 215.735 164.45C215.773 164.475 215.817 164.492 215.862 164.5C215.908 164.508 215.955 164.508 216 164.498L262.224 154.67C262.296 154.641 262.357 154.59 262.398 154.525C262.44 154.459 262.459 154.382 262.454 154.305V154.305Z" fill="#3B6DEB"/>
<path d="M42.471 152.78C42.363 151.74 42.471 150.62 42.471 148.541C42.471 146.745 44.496 146.583 44.6175 148.325C44.7255 149.81 44.7525 150.876 44.793 152.375C44.8467 152.682 44.7759 152.999 44.5961 153.255C44.4164 153.511 44.1424 153.684 43.8345 153.738C43.5266 153.792 43.2099 153.721 42.9542 153.541C42.6985 153.361 42.5247 153.087 42.471 152.78Z" fill="#E6E7E8"/>
<path d="M45.6975 152.914C45.5085 151.848 45.5355 150.714 45.4005 148.527C45.2925 146.65 47.3985 146.407 47.628 148.203C47.8305 149.782 47.925 150.903 48.06 152.374C48.1062 152.678 48.0359 152.987 47.8634 153.241C47.6908 153.495 47.4286 153.673 47.1296 153.742C46.8305 153.81 46.5167 153.763 46.251 153.609C45.9854 153.456 45.7876 153.208 45.6975 152.914Z" fill="#E6E7E8"/>
<path d="M48.9779 152.699C48.7349 151.632 48.6944 150.377 48.4649 148.257C48.3029 146.799 49.5044 146.273 50.2334 146.907C49.1399 148.001 49.5584 149.108 50.6114 149.108H50.9354C51.0839 150.012 51.1649 150.66 51.3674 152.078C51.4112 152.38 51.3419 152.688 51.1728 152.943C51.0036 153.197 50.7465 153.381 50.4506 153.458C50.1548 153.535 49.8409 153.5 49.5692 153.36C49.2975 153.22 49.0869 152.984 48.9779 152.699Z" fill="#E6E7E8"/>
<path d="M52.2855 152.212C52.0143 151.165 51.8114 150.1 51.678 149.026C52.353 149.026 53.19 148.932 54.027 148.824C54.1755 149.512 54.567 151.416 54.567 151.416C54.6356 151.708 54.5936 152.015 54.4491 152.278C54.3047 152.542 54.068 152.742 53.7846 152.841C53.5012 152.94 53.1913 152.93 52.9145 152.814C52.6377 152.698 52.4136 152.484 52.2855 152.212Z" fill="#E6E7E8"/>
<path d="M54.3375 139.833C55.2198 140.625 56.0411 141.482 56.7945 142.398C57.3907 144.001 57.5718 145.728 57.321 147.42C56.6595 147.987 51.8265 148.365 50.571 148.365C50.355 148.365 50.247 148.365 50.2335 148.176C50.2335 147.731 51.0165 146.529 53.8785 145.814C53.9716 145.799 54.0552 145.748 54.1109 145.673C54.1666 145.597 54.1898 145.502 54.1755 145.409C54.1612 145.315 54.1105 145.232 54.0345 145.176C53.9585 145.12 53.8636 145.097 53.7705 145.112C50.112 145.328 48.1815 144.194 47.6685 141.534C47.6644 141.485 47.6502 141.438 47.6268 141.395C47.6035 141.353 47.5714 141.315 47.5328 141.285C47.4942 141.256 47.4497 141.234 47.4024 141.223C47.355 141.211 47.3058 141.209 47.2577 141.218C47.2097 141.226 47.164 141.245 47.1235 141.272C47.0829 141.299 47.0485 141.334 47.0224 141.375C46.9963 141.417 46.979 141.463 46.9717 141.511C46.9644 141.559 46.9672 141.608 46.98 141.656C47.1476 142.822 47.7354 143.886 48.6328 144.65C49.5303 145.413 50.6756 145.822 51.8535 145.8C51.4734 145.97 51.1116 146.178 50.7735 146.421C50.5671 146.221 50.3144 146.075 50.038 145.997C49.7616 145.918 49.4701 145.909 49.1894 145.971C48.9087 146.032 48.6476 146.162 48.4293 146.349C48.2111 146.536 48.0424 146.774 47.9385 147.042C47.7689 146.797 47.5387 146.599 47.2703 146.469C47.0019 146.339 46.7044 146.281 46.4068 146.3C46.1091 146.319 45.8215 146.415 45.5718 146.578C45.3221 146.741 45.1189 146.966 44.982 147.231C44.8138 146.954 44.5702 146.731 44.2797 146.588C43.9893 146.445 43.6641 146.388 43.3423 146.424C43.0205 146.459 42.7154 146.586 42.4631 146.789C42.2107 146.991 42.0214 147.262 41.9175 147.569C41.6519 144.11 41.6023 140.638 41.769 137.174C45.2164 136.357 48.7587 136.011 52.299 136.148C52.3243 136.879 52.5222 137.594 52.8764 138.235C53.2307 138.875 53.7313 139.423 54.3375 139.833Z" fill="#E6E7E8"/>
<path d="M73.2374 86.4809C65.7719 88.4519 74.3714 87.5609 89.6939 73.2914C89.7466 73.2265 89.7753 73.1454 89.7753 73.0619C89.7753 72.9783 89.7466 72.8973 89.6939 72.8324C87.9794 70.1324 89.5859 68.7824 90.4364 70.5374C91.0979 71.8874 92.6774 71.8874 92.5964 68.5394C93.1868 68.3803 93.7644 68.1772 94.3244 67.9319C95.0669 76.0319 94.7699 78.5429 93.9869 79.6364C93.0689 80.5274 90.1664 77.6789 89.2754 76.7744C89.2257 76.7205 89.1603 76.6835 89.0885 76.6687C89.0166 76.6538 88.942 76.6619 88.8749 76.6917C88.8079 76.7215 88.7519 76.7715 88.7148 76.8348C88.6776 76.898 88.6613 76.9713 88.6679 77.0444C88.8164 79.6499 89.3294 81.5939 91.3679 83.0654C85.2301 83.6286 79.1595 84.7722 73.2374 86.4809Z" fill="#E6E7E8"/>
</svg>
