<svg width="340" height="143" viewBox="0 0 340 143" fill="none" xmlns="http://www.w3.org/2000/svg">
<path fill-rule="evenodd" clip-rule="evenodd" d="M42.5922 37.7574C45.3674 34.4742 49.6148 33.7401 53.6061 35.607C57.6009 37.4755 60.6764 41.6147 61.6955 46.9108L61.7963 47.448L61.8315 47.6312C62.6753 51.9966 63.4878 53.9241 65.2094 55.8548L65.2693 55.9207C66.1809 56.908 70.1336 60.5858 70.706 61.1446C70.9645 61.397 70.9777 61.8199 70.7355 62.0892C70.4933 62.3585 70.0874 62.3722 69.8289 62.1199L69.2768 61.5948C67.9865 60.3765 65.0403 57.6139 64.2989 56.797L64.2697 56.7645C62.3657 54.6293 61.4607 52.4823 60.574 47.895C60.5382 47.7098 60.5023 47.5197 60.466 47.3238C58.6041 37.1908 48.6972 32.5571 43.5549 38.6407C41.3349 41.2671 41.1114 45.2289 42.4798 49.9624C43.466 53.3741 45.3217 57.0702 46.675 58.8385L46.7352 58.9163C47.402 59.7706 47.6896 61.2861 48.0173 64.8163L48.333 68.3928L48.4002 69.1173C48.4966 70.137 48.5919 71.0476 48.6981 71.9477C49.031 74.7694 49.4516 77.2789 50.0258 79.6584C50.1196 80.047 50.2171 80.4306 50.3187 80.8093C50.414 81.1647 50.2148 81.5334 49.8736 81.6327C49.5325 81.732 49.1786 81.5244 49.0833 81.169C48.9787 80.7789 48.8782 80.3841 48.7818 79.9842C48.1933 77.5454 47.7639 74.9834 47.4249 72.1108L47.376 71.6891C47.2877 70.9136 47.2061 70.1205 47.1237 69.2498L47.0378 68.3165C46.9654 67.5047 46.8075 65.6831 46.7759 65.3319L46.7407 64.9483C46.4449 61.7764 46.1719 60.3129 45.7405 59.7602C44.2759 57.8881 42.3005 53.9763 41.2515 50.3479C39.7685 45.218 40.0176 40.8033 42.5922 37.7574Z" fill="#2EA3F2"/>
<path fill-rule="evenodd" clip-rule="evenodd" d="M32.4259 70.1746C36.0958 69.8332 40.0035 71.5573 42.8733 75.0117L43.1508 75.3497C44.7554 77.2968 45.883 78.4008 46.9825 79.1124C47.8923 79.7012 48.8058 80.0534 50.3361 80.4386L50.5561 80.4925C51.1113 80.623 53.8627 81.2564 54.9901 81.5441L55.4572 81.6647C57.5635 82.2156 59.7355 82.8748 62.218 83.741C65.8979 85.019 69.3563 87.5807 72.6404 91.2713C72.8813 91.542 72.8659 91.9648 72.6062 92.2157C72.3464 92.4666 71.9406 92.4506 71.6998 92.18C68.5515 88.642 65.2658 86.2083 61.8115 85.0086C59.2694 84.1216 57.0618 83.4559 54.9147 82.9012L54.3386 82.7555C52.9801 82.4202 50.3782 81.8229 50.1725 81.7721C48.439 81.3434 47.3798 80.9429 46.3056 80.2476C45.0283 79.421 43.7699 78.1734 41.9862 75.9869C36.6469 69.4421 27.7403 70.2706 26.4703 76.8025C25.913 79.6241 27.3155 82.5848 30.1743 85.4407C32.2355 87.4999 35.0366 89.4002 36.7031 90.1105L36.7868 90.1456C37.6448 90.4958 38.4771 91.51 40.1392 93.9816L42.0654 96.8658L42.4118 97.3782C43.3453 98.7469 44.1926 99.9264 45.0626 101.049C47.9303 104.751 50.8108 107.512 53.9855 109.316C55.9302 110.426 57.7457 110.881 59.5537 110.819C60.9103 110.773 62.1083 110.478 63.8115 109.857L65.0717 109.387L65.3713 109.279C65.6562 109.177 65.9003 109.095 66.1351 109.023C66.9356 108.779 67.5935 108.668 68.2164 108.704C69.7301 108.79 70.9042 109.753 71.8876 111.784C72.0471 112.113 71.9201 112.515 71.6039 112.682C71.2876 112.848 70.9019 112.715 70.7424 112.386C69.9646 110.78 69.1824 110.12 68.2022 110.042L68.0865 110.035C67.4362 110.003 67.1057 110.071 65.4443 110.674L64.3962 111.059C62.4953 111.761 61.1537 112.102 59.5955 112.155C57.5573 112.224 55.5146 111.712 53.3703 110.489C50.0268 108.588 47.0289 105.716 44.0644 101.889C43.2284 100.81 42.4152 99.6827 41.5325 98.3956L41.1374 97.8146L39.0914 94.7525L38.8894 94.4536C37.5717 92.5139 36.8283 91.6174 36.3414 91.3997L36.3173 91.3894C34.5039 90.6431 31.5016 88.6183 29.2865 86.4054C26.1425 83.2645 24.5489 79.9003 25.2135 76.5352C25.9201 72.9006 28.7441 70.517 32.4259 70.1746Z" fill="#2EA3F2"/>
<path fill-rule="evenodd" clip-rule="evenodd" d="M76.9963 27.798C79.3663 23.0373 83.218 20.664 88.7129 21.2062C91.0274 21.4315 92.8795 22.1063 94.2959 23.2069C94.5798 23.4276 94.6383 23.8463 94.4266 24.1421C94.2148 24.438 93.813 24.4989 93.529 24.2783C92.3134 23.3338 90.6853 22.7405 88.5928 22.5368C83.6363 22.0478 80.272 24.1207 78.135 28.4134C76.4054 31.8876 75.5518 36.6222 75.3213 42.5312L75.3124 42.7681C75.2487 44.5348 75.245 45.9363 75.2799 48.1875L75.3066 49.884C75.3368 52.1185 75.314 53.058 75.1915 54.2093L75.1849 54.2701C74.9923 56.041 74.5559 57.5013 73.752 58.9158C73.1309 60.0085 72.2845 61.0781 71.1528 62.1965L71.0259 62.321C68.9317 64.3592 68.9734 66.6542 70.6325 70.3168L70.7993 70.6787C71.0044 71.1172 71.2274 71.5703 71.5751 72.2623L72.0773 73.265C72.7632 74.6444 73.0491 75.2809 73.3603 76.1337C73.8766 77.5486 74.0786 78.7611 73.916 79.8857L73.8843 80.0857C73.76 80.8314 73.4056 82.6949 73.3679 82.9079C72.7407 86.4586 72.5484 89.7049 72.9638 93.7526C73.5223 99.1955 75.1835 105.286 78.2265 112.23C78.3737 112.566 78.2317 112.963 77.9095 113.116C77.5873 113.269 77.2068 113.121 77.0597 112.786C73.961 105.714 72.262 99.4849 71.6883 93.8947C71.2674 89.7922 71.4504 86.4728 72.0673 82.8902L72.125 82.564C72.22 82.0496 72.5833 80.132 72.6476 79.6867C72.7681 78.8534 72.6169 77.8939 72.2049 76.7298L72.1236 76.506C71.8342 75.7257 71.5423 75.0896 70.84 73.6824L70.2492 72.5039C69.9398 71.8841 69.7351 71.4608 69.5258 71.0042C68.6473 69.0879 68.1876 67.5756 68.1475 66.1202C68.0987 64.3497 68.7079 62.7859 70.0693 61.4242L70.1503 61.3443C71.2615 60.2628 72.0707 59.2511 72.6483 58.2348C73.3311 57.0334 73.7113 55.7971 73.8923 54.2778L73.9225 54.0055C74.0325 52.9465 74.0528 52.0309 74.0238 49.8831L73.9899 47.6966C73.9646 45.8235 73.9701 44.5257 74.0211 42.9914L74.0305 42.718C74.2538 36.5185 75.1374 31.5319 76.9963 27.798Z" fill="#2EA3F2"/>
<path fill-rule="evenodd" clip-rule="evenodd" d="M93.4494 77.8983C89.9359 81.7182 87.3714 87.1278 85.5947 93.8965C84.1552 99.3811 83.2802 105.532 82.7971 112.46C82.7701 112.847 83.0643 113.176 83.4368 113.176H93.9125C94.2667 113.176 94.5538 112.877 94.5538 112.508V78.3606C94.5538 77.7584 93.8493 77.4635 93.4494 77.8983ZM93.2711 80.1208V111.84H84.1282L84.1301 111.812C84.6176 105.268 85.4689 99.4425 86.832 94.2491C88.3564 88.4414 90.4652 83.6916 93.2438 80.1555L93.2711 80.1208Z" fill="#2EA3F2"/>
<path fill-rule="evenodd" clip-rule="evenodd" d="M93.7199 111.84C94.0741 111.84 94.3613 112.139 94.3613 112.508C94.3613 112.864 94.0943 113.155 93.7576 113.175L93.7199 113.176H67.8515C66.3148 113.176 65.1787 114.591 65.472 116.09L71.0001 141.832C71.0774 142.192 70.8599 142.549 70.5142 142.63C70.1809 142.707 69.8502 142.499 69.7576 142.162L69.7483 142.124L64.2334 116.444C63.717 114.104 65.4446 111.885 67.7805 111.84L67.8515 111.84H93.7199Z" fill="#0A66C2"/>
<path fill-rule="evenodd" clip-rule="evenodd" d="M257.098 0.420898H93.9126C93.5584 0.420898 93.2712 0.720083 93.2712 1.08914V141.733C93.2712 142.102 93.5584 142.401 93.9126 142.401H257.098C257.452 142.401 257.739 142.102 257.739 141.733V1.08914C257.739 0.720083 257.452 0.420898 257.098 0.420898ZM256.456 1.75715V141.064H94.554V1.75715H256.456Z" fill="#0A66C2"/>
<path fill-rule="evenodd" clip-rule="evenodd" d="M195.847 105.514H186.697C186.343 105.514 186.056 105.813 186.056 106.182V121.062C186.056 121.431 186.343 121.73 186.697 121.73H195.847C196.201 121.73 196.488 121.431 196.488 121.062V106.182C196.488 105.813 196.201 105.514 195.847 105.514ZM195.206 106.85V120.393H187.338V106.85H195.206Z" fill="#0A66C2"/>
<path fill-rule="evenodd" clip-rule="evenodd" d="M210.214 99.2545H201.063C200.709 99.2545 200.422 99.5537 200.422 99.9228V121.062C200.422 121.431 200.709 121.73 201.063 121.73H210.214C210.568 121.73 210.855 121.431 210.855 121.062V99.9228C210.855 99.5537 210.568 99.2545 210.214 99.2545ZM209.572 100.591V120.393H201.705V100.591H209.572Z" fill="#0A66C2"/>
<path fill-rule="evenodd" clip-rule="evenodd" d="M224.559 89.3645H215.409C215.054 89.3645 214.767 89.6637 214.767 90.0327V121.062C214.767 121.431 215.054 121.73 215.409 121.73H224.559C224.913 121.73 225.2 121.431 225.2 121.062V90.0327C225.2 89.6637 224.913 89.3645 224.559 89.3645ZM223.917 90.701V120.393H216.05V90.701H223.917Z" fill="#0A66C2"/>
<rect x="229.754" y="81.4791" width="9.15016" height="39.5825" fill="#2EA3F2"/>
<path fill-rule="evenodd" clip-rule="evenodd" d="M242.004 61.1644C241.854 61.0308 241.662 60.9862 241.491 61.0085L235.505 62.0109C235.163 62.0777 234.906 62.4118 234.97 62.7682C235.035 63.1246 235.355 63.3697 235.697 63.3251L239.61 62.6791L227.937 76.8014L223.169 72.0346C223.041 71.9009 222.87 71.8341 222.699 71.8564C222.528 71.8564 222.357 71.9455 222.25 72.0791L206.601 91.0128L202.068 87.4711C201.812 87.2706 201.47 87.2929 201.235 87.5156L187.189 101.549C186.932 101.794 186.932 102.217 187.167 102.484C187.296 102.618 187.467 102.685 187.638 102.685C187.787 102.685 187.958 102.618 188.087 102.507L201.748 88.8521L206.344 92.4384C206.622 92.6388 206.986 92.6166 207.221 92.3493L222.806 73.4825L227.573 78.2493C227.702 78.3829 227.873 78.4497 228.044 78.4275C228.215 78.4275 228.386 78.3384 228.493 78.2047L240.957 63.1246L240.871 68.4038C240.871 68.7825 241.149 69.072 241.512 69.072V69.072C241.854 69.072 242.154 68.7825 242.154 68.4038L242.261 61.6545C242.239 61.4986 242.154 61.2981 242.004 61.1644Z" fill="#2EA3F2"/>
<path fill-rule="evenodd" clip-rule="evenodd" d="M149.712 105.001C150.066 105.001 150.353 105.301 150.353 105.67C150.353 106.026 150.086 106.317 149.749 106.337L149.712 106.338H110.375C110.02 106.338 109.733 106.039 109.733 105.67C109.733 105.314 110 105.023 110.337 105.003L110.375 105.001H149.712Z" fill="#0A66C2"/>
<path fill-rule="evenodd" clip-rule="evenodd" d="M139.343 111.238C139.697 111.238 139.984 111.538 139.984 111.907C139.984 112.263 139.717 112.553 139.381 112.574L139.343 112.575H110.375C110.02 112.575 109.733 112.276 109.733 111.907C109.733 111.551 110 111.26 110.337 111.24L110.375 111.238H139.343Z" fill="#0A66C2"/>
<path fill-rule="evenodd" clip-rule="evenodd" d="M130.043 118.233C130.397 118.233 130.684 118.532 130.684 118.901C130.684 119.257 130.417 119.548 130.081 119.568L130.043 119.569H109.519C109.165 119.569 108.878 119.27 108.878 118.901C108.878 118.545 109.145 118.254 109.482 118.234L109.519 118.233H130.043Z" fill="#0A66C2"/>
<path fill-rule="evenodd" clip-rule="evenodd" d="M171.219 105.001C171.573 105.001 171.86 105.301 171.86 105.67C171.86 106.026 171.593 106.317 171.256 106.337L171.219 106.338H154.244C153.89 106.338 153.603 106.039 153.603 105.67C153.603 105.314 153.87 105.023 154.206 105.003L154.244 105.001H171.219Z" fill="#0A66C2"/>
<path fill-rule="evenodd" clip-rule="evenodd" d="M129.038 92.0374L133.571 96.4924V87.5156L129.038 92.0374Z" fill="#2EA3F2"/>
<path fill-rule="evenodd" clip-rule="evenodd" d="M122.518 96.7152L127.178 92.0598L122.518 87.4934V96.7152Z" fill="#2EA3F2"/>
<path fill-rule="evenodd" clip-rule="evenodd" d="M145.628 85.9342H135.153L140.433 91.1242L145.628 85.9342Z" fill="#2EA3F2"/>
<path fill-rule="evenodd" clip-rule="evenodd" d="M128.098 92.973L122.796 98.2967H133.528V98.2967L128.098 92.973Z" fill="#2EA3F2"/>
<path fill-rule="evenodd" clip-rule="evenodd" d="M134.853 96.7152L139.514 92.0598L134.853 87.4934V96.7152Z" fill="#2EA3F2"/>
<path fill-rule="evenodd" clip-rule="evenodd" d="M109.519 86.8698V97.3612L114.821 92.0598L109.519 86.8698Z" fill="#2EA3F2"/>
<path fill-rule="evenodd" clip-rule="evenodd" d="M115.762 92.973L110.46 98.2967H121.192V98.2967L115.762 92.973Z" fill="#2EA3F2"/>
<path fill-rule="evenodd" clip-rule="evenodd" d="M120.936 85.9342H110.46L115.762 91.1242L120.936 85.9342Z" fill="#2EA3F2"/>
<path fill-rule="evenodd" clip-rule="evenodd" d="M145.906 96.4924V87.5156L141.374 92.0374L145.906 96.4924Z" fill="#2EA3F2"/>
<path fill-rule="evenodd" clip-rule="evenodd" d="M116.703 92.0374L121.235 96.4924V87.5156L116.703 92.0374Z" fill="#2EA3F2"/>
<path fill-rule="evenodd" clip-rule="evenodd" d="M140.455 92.973L135.153 98.2967H145.885V98.2967L140.455 92.973Z" fill="#2EA3F2"/>
<path fill-rule="evenodd" clip-rule="evenodd" d="M133.271 85.9342H122.796L128.098 91.1242L133.271 85.9342Z" fill="#2EA3F2"/>
<path fill-rule="evenodd" clip-rule="evenodd" d="M158.242 85.9342H147.189V98.2967V98.2967H158.242V98.2967V85.9342Z" fill="#2EA3F2"/>
<path fill-rule="evenodd" clip-rule="evenodd" d="M171.219 85.9342H159.524V98.2967V98.2967H171.219V85.9342Z" fill="#2EA3F2"/>
<path fill-rule="evenodd" clip-rule="evenodd" d="M145.863 98.2968C145.885 98.319 145.885 98.319 145.906 98.319V98.2968H145.863Z" fill="#2EA3F2"/>
<path fill-rule="evenodd" clip-rule="evenodd" d="M232.982 39.9589H226.355C226.001 39.9589 225.713 40.258 225.713 40.6271V47.5323C225.713 47.9014 226.001 48.2006 226.355 48.2006H232.982C233.336 48.2006 233.624 47.9014 233.624 47.5323V40.6271C233.624 40.258 233.336 39.9589 232.982 39.9589ZM232.341 41.2951V46.8638H226.996V41.2951H232.341Z" fill="#0A66C2"/>
<path fill-rule="evenodd" clip-rule="evenodd" d="M234.286 27.4403H208.952C208.598 27.4403 208.311 27.7395 208.311 28.1086V36.0607C208.311 36.4298 208.598 36.7289 208.952 36.7289H234.286C234.641 36.7289 234.928 36.4298 234.928 36.0607V28.1086C234.928 27.7395 234.641 27.4403 234.286 27.4403ZM233.645 28.7768V35.3924H209.594V28.7768H233.645Z" fill="#0A66C2"/>
<path fill-rule="evenodd" clip-rule="evenodd" d="M221.844 46.864C222.198 46.864 222.485 47.1632 222.485 47.5323C222.485 47.8881 222.218 48.179 221.882 48.1994L221.844 48.2005H208.952C208.598 48.2005 208.311 47.9013 208.311 47.5323C208.311 47.1764 208.578 46.8855 208.915 46.8651L208.952 46.864H221.844Z" fill="#0A66C2"/>
<path fill-rule="evenodd" clip-rule="evenodd" d="M221.844 43.5896C222.198 43.5896 222.485 43.8888 222.485 44.2578C222.485 44.6137 222.218 44.9046 221.882 44.925L221.844 44.9261H208.952C208.598 44.9261 208.311 44.6269 208.311 44.2578C208.311 43.902 208.578 43.6111 208.915 43.5907L208.952 43.5896H221.844Z" fill="#0A66C2"/>
<path fill-rule="evenodd" clip-rule="evenodd" d="M221.844 40.3375C222.198 40.3375 222.485 40.6367 222.485 41.0058C222.485 41.3617 222.218 41.6526 221.882 41.6729L221.844 41.674H208.952C208.598 41.674 208.311 41.3748 208.311 41.0058C208.311 40.6499 208.578 40.359 208.915 40.3387L208.952 40.3375H221.844Z" fill="#0A66C2"/>
<path fill-rule="evenodd" clip-rule="evenodd" d="M223.383 65.5304C223.737 65.5304 224.024 65.8296 224.024 66.1986C224.024 66.5545 223.757 66.8454 223.421 66.8658L223.383 66.8669H188.172C187.818 66.8669 187.531 66.5677 187.531 66.1986C187.531 65.8428 187.798 65.5519 188.134 65.5315L188.172 65.5304H223.383Z" fill="#0A66C2"/>
<path fill-rule="evenodd" clip-rule="evenodd" d="M208.952 68.6711C209.307 68.6711 209.594 68.9703 209.594 69.3394C209.594 69.6953 209.327 69.9862 208.99 70.0065L208.952 70.0076H188.172C187.818 70.0076 187.531 69.7084 187.531 69.3394C187.531 68.9835 187.798 68.6926 188.134 68.6723L188.172 68.6711H208.952Z" fill="#0A66C2"/>
<path fill-rule="evenodd" clip-rule="evenodd" d="M152.042 47.1759L176.2 34.4124C178.124 38.3773 179.129 42.7432 179.129 47.1759C179.129 62.6569 166.9 75.3981 152.042 75.3981C143.79 75.3981 135.986 71.4778 130.855 64.7507L152.042 47.1759Z" fill="#2EA3F2"/>
<path fill-rule="evenodd" clip-rule="evenodd" d="M195.184 24.9677C195.539 24.9677 195.826 25.2668 195.826 25.6359C195.826 25.9918 195.559 26.2827 195.222 26.303L195.184 26.3041H172.801C172.447 26.3041 172.159 26.005 172.159 25.6359C172.159 25.28 172.426 24.9891 172.763 24.9688L172.801 24.9677H195.184Z" fill="#0A66C2"/>
<path fill-rule="evenodd" clip-rule="evenodd" d="M195.184 28.1085C195.539 28.1085 195.826 28.4077 195.826 28.7768C195.826 29.1326 195.559 29.4236 195.222 29.4439L195.184 29.445H183.255C182.901 29.445 182.614 29.1458 182.614 28.7768C182.614 28.4209 182.881 28.13 183.217 28.1097L183.255 28.1085H195.184Z" fill="#0A66C2"/>
<path fill-rule="evenodd" clip-rule="evenodd" d="M195.184 31.2716C195.539 31.2716 195.826 31.5708 195.826 31.9399C195.826 32.2957 195.559 32.5866 195.222 32.607L195.184 32.6081H187.253C186.899 32.6081 186.611 32.3089 186.611 31.9399C186.611 31.584 186.878 31.2931 187.215 31.2727L187.253 31.2716H195.184Z" fill="#0A66C2"/>
<path fill-rule="evenodd" clip-rule="evenodd" d="M195.847 49.9825C196.201 49.9825 196.489 50.2817 196.489 50.6508C196.489 51.0067 196.222 51.2976 195.885 51.3179L195.847 51.319H166.964C166.61 51.319 166.323 51.0198 166.323 50.6508C166.323 50.2949 166.59 50.004 166.927 49.9837L166.964 49.9825H195.847Z" fill="#0A66C2"/>
<path fill-rule="evenodd" clip-rule="evenodd" d="M195.847 52.455C196.201 52.455 196.488 52.7541 196.488 53.1232C196.488 53.4791 196.221 53.77 195.885 53.7903L195.847 53.7915H190.438C190.084 53.7915 189.797 53.4923 189.797 53.1232C189.797 52.7673 190.064 52.4764 190.401 52.4561L190.438 52.455H195.847Z" fill="#0A66C2"/>
<path fill-rule="evenodd" clip-rule="evenodd" d="M135.623 22.3617C135.977 22.3617 136.264 22.6609 136.264 23.0299C136.264 23.3858 135.997 23.6767 135.661 23.6971L135.623 23.6982H118.413C118.059 23.6982 117.771 23.399 117.771 23.0299C117.771 22.6741 118.038 22.3832 118.375 22.3628L118.413 22.3617H135.623Z" fill="#0A66C2"/>
<path fill-rule="evenodd" clip-rule="evenodd" d="M121.855 24.9011C122.209 24.9011 122.496 25.2003 122.496 25.5694C122.496 25.9252 122.229 26.2162 121.893 26.2365L121.855 26.2376H118.413C118.059 26.2376 117.771 25.9384 117.771 25.5694C117.771 25.2135 118.038 24.9226 118.375 24.9023L118.413 24.9011H121.855Z" fill="#0A66C2"/>
<path fill-rule="evenodd" clip-rule="evenodd" d="M146.99 47.755L120.929 48.0446C120.575 48.0486 120.29 48.3509 120.294 48.72C120.358 54.9769 122.411 60.8966 126.078 65.7012C126.298 65.9898 126.701 66.038 126.978 65.809L147.395 48.9469C147.874 48.5514 147.601 47.7483 146.99 47.755ZM145.13 49.112L126.689 64.3418L126.64 64.2734C123.571 60.0109 121.799 54.8904 121.595 49.4725L121.592 49.3737L145.13 49.112Z" fill="#2EA3F2"/>
<path fill-rule="evenodd" clip-rule="evenodd" d="M123.202 35.9532C122.018 39.1436 121.406 42.5253 121.406 46.0175V46.3739C121.406 46.7464 121.698 47.047 122.056 47.0421L148.095 46.6857C148.8 46.6761 148.976 45.6605 148.319 45.3946L124.033 35.5714C123.702 35.4377 123.33 35.6087 123.202 35.9532ZM124.174 37.0624L144.775 45.3945L122.691 45.6968L122.692 45.5646C122.738 42.7004 123.217 39.9193 124.105 37.2683L124.174 37.0624Z" fill="#2EA3F2"/>
<path fill-rule="evenodd" clip-rule="evenodd" d="M165.316 19.5588L152.468 43.1033C152.155 43.6767 152.744 44.3255 153.311 44.0321L176.592 31.9814C176.909 31.8175 177.038 31.4177 176.882 31.0874C174.544 26.1472 170.805 22.032 166.19 19.3077C165.882 19.1259 165.491 19.2383 165.316 19.5588ZM166.111 20.8067L166.187 20.8544C170.081 23.3112 173.276 26.8276 175.401 31.0045L175.441 31.0846L154.621 41.8616L166.111 20.8067Z" fill="#2EA3F2"/>
<path fill-rule="evenodd" clip-rule="evenodd" d="M162.881 20.5128C159.118 18.263 154.757 16.9711 150.118 16.9265H149.69C138.766 17.0379 129.466 24.1436 125.703 34.145L149.947 44.0573L162.881 20.5128Z" fill="#0A66C2"/>
<path fill-rule="evenodd" clip-rule="evenodd" d="M125.789 52.5441C126.143 52.5441 126.43 52.8433 126.43 53.2123C126.43 53.5682 126.163 53.8591 125.826 53.8794L125.789 53.8806H108.579C108.224 53.8806 107.937 53.5814 107.937 53.2123C107.937 52.8564 108.204 52.5655 108.541 52.5452L108.579 52.5441H125.789Z" fill="#0A66C2"/>
<path fill-rule="evenodd" clip-rule="evenodd" d="M114.8 55.0834C115.154 55.0834 115.441 55.3826 115.441 55.7516C115.441 56.1075 115.174 56.3984 114.838 56.4187L114.8 56.4199H108.579C108.224 56.4199 107.937 56.1207 107.937 55.7516C107.937 55.3957 108.204 55.1048 108.541 55.0845L108.579 55.0834H114.8Z" fill="#0A66C2"/>
<path fill-rule="evenodd" clip-rule="evenodd" d="M239.035 129.617C239.389 129.594 239.693 129.873 239.715 130.242C239.737 130.61 239.469 130.927 239.115 130.95C237.789 131.037 236.392 131.202 235.015 131.442L233.206 131.773L232.422 131.92C232.224 131.958 232.033 131.995 231.847 132.031L231.571 132.085C229.577 132.481 228.145 132.83 227.311 133.15C227.117 133.225 226.964 133.295 226.857 133.357C226.831 133.372 226.81 133.386 226.792 133.399L226.767 133.417C226.641 133.628 226.68 133.739 226.964 133.92L227 133.942C227.46 134.224 228.249 134.39 229.069 134.36C229.423 134.347 229.72 134.636 229.732 135.005C229.744 135.374 229.467 135.683 229.113 135.696C228.067 135.733 227.041 135.518 226.35 135.095C225.434 134.534 225.119 133.591 225.712 132.656C225.913 132.337 226.283 132.12 226.867 131.896L226.999 131.847C227.883 131.525 229.225 131.196 231.047 130.829L231.61 130.717C231.939 130.653 232.282 130.588 232.654 130.518L234.475 130.182C236.003 129.902 237.56 129.713 239.035 129.617Z" fill="#0A66C2"/>
<path fill-rule="evenodd" clip-rule="evenodd" d="M250.485 128.529L250.495 128.567L253.509 141.576C253.604 141.984 253.319 142.377 252.923 142.4L252.886 142.401L235.89 142.401L235.816 142.405C233.722 142.523 232.473 141.955 232.427 140.734L232.426 140.68C232.425 140.585 232.433 140.49 232.45 140.394L232.457 140.356L232.396 140.353C231.199 140.292 230.016 139.649 229.737 138.891L229.723 138.848C229.65 138.621 229.675 138.373 229.783 138.109L229.79 138.093L229.747 138.099C229.176 138.171 228.715 138.174 228.35 138.101L228.296 138.09C227.219 137.848 226.933 136.918 227.468 135.803C227.79 135.118 229.351 134.045 231.784 132.657L232.182 132.432C233.975 131.427 235.768 130.536 236.504 130.292L236.63 130.253C237.256 130.07 239.293 129.709 242.449 129.201L243.159 129.087C244.081 128.94 245.044 128.788 246.023 128.636L248.578 128.244L249.78 128.063C250.095 128.016 250.393 128.216 250.485 128.529ZM252.071 141.064L249.385 129.473L247.897 129.699L246.212 129.958C245.514 130.067 244.824 130.175 244.151 130.281L242.153 130.601C239.378 131.052 237.507 131.387 236.984 131.537L236.942 131.55C235.365 132.019 228.957 135.674 228.617 136.396C228.557 136.522 228.518 136.628 228.498 136.711L228.49 136.745L228.487 136.761L228.52 136.772L228.566 136.783C228.992 136.879 229.837 136.782 231.068 136.483L231.318 136.421L231.33 136.412C231.871 136.005 232.522 135.599 233.247 135.213L233.334 135.167C233.72 134.964 234.138 134.758 234.584 134.55C235.41 134.166 236.292 133.792 237.173 133.443L237.432 133.342C237.558 133.292 237.68 133.245 237.798 133.2L238.091 133.09L238.352 132.993C238.687 132.872 239.052 133.057 239.168 133.406C239.28 133.742 239.119 134.108 238.807 134.242L238.46 134.372L238.238 134.456C238.048 134.528 237.844 134.607 237.629 134.693C236.768 135.033 235.908 135.397 235.108 135.77C234.679 135.97 234.279 136.167 233.913 136.36C232.935 136.874 232.1 137.441 231.532 137.955C231.325 138.142 231.165 138.314 231.06 138.454L231.034 138.489L231.074 138.521C231.227 138.642 231.433 138.76 231.66 138.851C232.179 139.059 232.716 139.097 233.176 138.93L233.191 138.924L233.245 138.89C233.895 138.484 234.776 138.064 235.838 137.635L235.977 137.578C236.432 137.397 236.904 137.22 237.383 137.048L237.687 136.941L237.984 136.817C239.245 136.295 239.656 136.188 240.011 136.266L240.03 136.27C240.677 136.423 240.702 137.374 240.063 137.564L239.877 137.621L239.535 137.728C239.384 137.775 239.225 137.827 239.058 137.882L238.932 137.923C238.742 137.986 238.553 138.05 238.364 138.115L238.145 138.191L237.448 138.486L235.977 139.116C235.532 139.305 235.245 139.422 234.957 139.534L234.843 139.578C234.213 139.811 233.706 140.363 233.709 140.669C233.709 140.735 233.753 140.795 233.952 140.885C234.301 141.043 234.897 141.118 235.731 141.072L235.828 141.066L235.868 141.064L252.071 141.064Z" fill="#0A66C2"/>
<path fill-rule="evenodd" clip-rule="evenodd" d="M301.373 93.5745C301.566 87.7385 298.508 82.3257 293.527 79.675L285.467 75.1532L284.591 79.2963C283.629 83.7958 279.353 86.647 275.034 85.6446L273.987 85.3996C269.668 84.3972 266.932 79.9423 267.894 75.4427L269.241 69.1389C267.701 68.0252 266.483 66.5105 265.906 64.5503C265.863 64.4167 265.841 64.283 265.799 64.1716L257.76 59.6721L257.739 124.648L279.545 119.993L278.498 104.734C278.476 104.356 278.733 104.044 279.096 104.021C279.46 103.999 279.759 104.266 279.78 104.645L280.871 120.483C280.892 120.817 280.678 121.129 280.358 121.195L257.739 126.029V126.207L245.36 128.568C247.798 129.058 250.491 141.644 250.491 141.644H294.404C298.679 141.644 302.143 137.991 302.079 133.513L301.373 93.5745Z" fill="#0A66C2"/>
<path fill-rule="evenodd" clip-rule="evenodd" d="M286.678 65.5714C286.751 65.2102 287.091 64.9789 287.437 65.0547C287.772 65.1277 287.99 65.4598 287.94 65.8072L287.933 65.8459L285.195 79.4416C284.166 84.2565 279.626 87.3171 275.012 86.3279L274.872 86.2967L273.826 86.0519C269.205 84.9793 266.267 80.2494 267.216 75.4432L267.246 75.2976L268.593 68.9938C268.67 68.6335 269.013 68.4065 269.359 68.4867C269.692 68.564 269.906 68.8988 269.852 69.2456L269.845 69.2842L268.498 75.5881C267.623 79.6812 270.077 83.7421 273.987 84.719L274.106 84.7476L275.152 84.9924C279.081 85.9042 282.978 83.3472 283.914 79.2827L283.942 79.1591L286.678 65.5714Z" fill="#0A66C2"/>
<path fill-rule="evenodd" clip-rule="evenodd" d="M272.195 35.1637L272.053 35.4141C269.612 39.7735 267.55 45.0481 266.081 50.2622L266.077 50.2771L266.078 50.2695C266.078 50.2719 266.077 50.2747 266.077 50.2778L266.019 50.4818L265.967 50.6719L265.913 50.8766C265.894 50.9473 265.875 51.0208 265.856 51.0971C265.686 51.759 265.518 52.489 265.361 53.2762C264.897 55.5959 264.625 57.9161 264.64 60.0937C264.651 61.8171 264.845 63.3804 265.25 64.7474C266.098 67.611 268.259 69.768 271.211 71.0245C273.797 72.1257 276.816 72.4331 279.232 71.8858L279.49 71.8268C283.425 70.914 284.735 70.0861 286.891 67.4515L286.961 67.3659C287.638 66.5339 288.678 64.8283 290.006 62.4383L290.315 61.8793C290.394 61.7355 290.474 61.59 290.555 61.4426C291.243 60.1818 291.955 58.8399 292.656 57.4907L293.042 56.745C293.129 56.5775 293.213 56.4144 293.294 56.2562L293.881 55.1046L293.915 55.0342C294.004 54.8483 294.125 54.5737 294.266 54.2173C294.482 53.671 294.693 53.0615 294.886 52.3981C295.423 50.5499 295.736 48.5977 295.721 46.6135C295.678 40.9877 293.05 36.1725 287.072 32.8645L286.854 32.7454C286.296 32.446 285.636 32.1345 284.865 31.8335C283.568 31.3273 282.238 30.9699 280.917 30.8244C277.277 30.4237 274.23 31.6719 272.255 35.0597L272.195 35.1637ZM280.782 32.1535C281.986 32.286 283.213 32.6159 284.415 33.0851C285.231 33.4035 285.912 33.7339 286.469 34.0441C292.02 37.1156 294.399 41.4752 294.438 46.6241C294.452 48.4621 294.16 50.2834 293.658 52.0106C293.477 52.6314 293.281 53.2006 293.08 53.7085L293.008 53.8877C292.973 53.974 292.938 54.0556 292.905 54.1322L292.832 54.298C292.813 54.3396 292.797 54.3756 292.782 54.4057L292.718 54.5384L292.321 55.3178C292.167 55.6191 292.001 55.9412 291.826 56.2803L291.737 56.4512C290.973 57.928 290.191 59.4047 289.439 60.782L289.202 61.2148L288.97 61.6365C287.67 63.9813 286.642 65.6764 286.016 66.4599L285.851 66.6628C283.873 69.0656 282.782 69.7143 278.96 70.5799C276.802 71.0687 274.047 70.7882 271.696 69.7874C269.076 68.672 267.2 66.7999 266.476 64.3534C266.111 63.1232 265.933 61.6862 265.922 60.0844C265.909 58.093 266.151 55.9542 266.566 53.8063L266.629 53.4853L266.665 53.3107C266.869 52.3336 267.178 51.0931 267.293 50.6327L267.312 50.6387C268.753 45.5219 270.777 40.3455 273.16 36.0895L273.298 35.845C274.992 32.8714 277.568 31.7997 280.782 32.1535Z" fill="#0A66C2"/>
<path fill-rule="evenodd" clip-rule="evenodd" d="M266.696 50.4281C267.958 45.9731 269.967 40.3376 272.747 35.4816C272.875 35.2589 273.003 35.0361 273.153 34.8357C270.908 33.0091 267.252 36.7736 264.73 44.5475C263.425 48.557 259.877 50.584 259.877 50.584C262.592 53.0565 265.05 51.9873 266.654 50.584C266.675 50.4949 266.675 50.4281 266.696 50.4281Z" fill="#0A66C2"/>
<path fill-rule="evenodd" clip-rule="evenodd" d="M272.429 47.6192C272.56 47.2763 272.933 47.1091 273.262 47.2456C273.579 47.3773 273.74 47.7433 273.633 48.0768L273.621 48.1137L270.978 55.028L272.734 55.704C273.054 55.8273 273.224 56.1891 273.125 56.5252L273.113 56.5624C272.995 56.8962 272.648 57.0727 272.325 56.9703L272.289 56.9577L269.916 56.0445C269.59 55.9189 269.422 55.5472 269.53 55.2079L269.543 55.1704L272.429 47.6192Z" fill="#0A66C2"/>
<path fill-rule="evenodd" clip-rule="evenodd" d="M271.089 47.3426C271.345 46.7208 271.245 46.0791 270.865 45.9093C270.485 45.7395 269.97 46.1059 269.714 46.7278C269.458 47.3496 269.558 47.9913 269.938 48.161C270.318 48.3308 270.833 47.9644 271.089 47.3426Z" fill="#0A66C2"/>
<path fill-rule="evenodd" clip-rule="evenodd" d="M277.685 50.3062C277.825 49.6455 277.612 49.0347 277.208 48.9419C276.805 48.8491 276.364 49.3095 276.224 49.9702C276.084 50.6309 276.298 51.2417 276.701 51.3345C277.105 51.4273 277.545 50.9669 277.685 50.3062Z" fill="#0A66C2"/>
<path fill-rule="evenodd" clip-rule="evenodd" d="M279.494 45.3075C279.563 44.9456 279.901 44.7109 280.248 44.7832C281.226 44.987 281.994 45.4816 282.564 46.1731C282.833 46.4986 283.039 46.8461 283.192 47.1948C283.287 47.4098 283.345 47.5843 283.373 47.6993C283.462 48.0566 283.255 48.4211 282.913 48.5135C282.582 48.6025 282.245 48.4059 282.142 48.0714L282.122 48.0014C282.106 47.9496 282.075 47.8629 282.026 47.7518C281.92 47.5109 281.776 47.2687 281.591 47.0437C281.201 46.5708 280.682 46.2366 279.997 46.0938C279.649 46.0214 279.424 45.6694 279.494 45.3075Z" fill="#0A66C2"/>
<path fill-rule="evenodd" clip-rule="evenodd" d="M271.065 40.463C271.833 40.4045 272.606 40.6748 273.36 41.1499C273.757 41.4001 274.064 41.6506 274.25 41.8279C274.51 42.0775 274.528 42.5002 274.288 42.772C274.048 43.0439 273.643 43.0619 273.382 42.8122L273.355 42.7876C273.322 42.7579 273.272 42.7138 273.205 42.6593C273.052 42.5348 272.881 42.4098 272.696 42.2937C272.149 41.9487 271.613 41.7613 271.159 41.7959C270.944 41.8122 270.749 41.8778 270.566 42.0006L270.512 42.0391C270.224 42.254 269.823 42.185 269.617 41.885C269.411 41.5849 269.477 41.1675 269.765 40.9526C270.159 40.6587 270.598 40.4985 271.065 40.463Z" fill="#0A66C2"/>
<path fill-rule="evenodd" clip-rule="evenodd" d="M307.637 50.6508L300.39 46.8195C301.309 41.2063 300.732 32.5191 290.62 27.6186C274.799 19.956 269.027 36.4617 269.027 36.4617L305.264 55.5067C306.547 56.1973 308.129 55.6404 308.792 54.3039C309.454 52.9674 308.941 51.3413 307.637 50.6508Z" fill="#2EA3F2"/>
<path fill-rule="evenodd" clip-rule="evenodd" d="M276.633 59.7044C276.899 59.9479 276.926 60.3701 276.692 60.6475C276.645 60.7037 276.567 60.7853 276.459 60.8837C276.287 61.0393 276.086 61.1931 275.855 61.3359C274.495 62.1765 272.776 62.2834 270.806 61.2237C270.492 61.0544 270.368 60.6513 270.531 60.3233C270.693 59.9954 271.08 59.8668 271.395 60.0362C272.958 60.8771 274.209 60.7993 275.201 60.1864C275.362 60.0866 275.501 59.9805 275.616 59.8763L275.668 59.8269L275.728 59.7659C275.962 59.4885 276.367 59.461 276.633 59.7044Z" fill="#0A66C2"/>
<path fill-rule="evenodd" clip-rule="evenodd" d="M299.556 52.4996L284.27 44.4584C282.495 50.2276 280.272 61.7882 289.743 64.8399C289.743 64.8399 297.14 67.4015 299.278 64.8622C299.278 64.8622 294.19 60.9863 295.344 57.801C295.344 57.801 300.539 65.82 306.654 61.5655C306.632 61.5655 299.428 59.1598 299.556 52.4996Z" fill="#0A66C2"/>
<path fill-rule="evenodd" clip-rule="evenodd" d="M338.786 141.042C339.14 141.042 339.428 141.341 339.428 141.71C339.428 142.066 339.161 142.357 338.824 142.378L338.786 142.379H1.08546C0.731241 142.379 0.444092 142.08 0.444092 141.71C0.444092 141.355 0.711097 141.064 1.04777 141.043L1.08546 141.042H338.786Z" fill="#0A66C2"/>
</svg>
